<svg width="82" height="29" viewBox="0 0 82 29" fill="none" xmlns="http://www.w3.org/2000/svg">
<path d="M58.9397 25.3828C52.9158 29.5389 46.9702 29.5487 41.0049 25.4023C35.0886 29.5487 29.1429 29.5487 23.0799 25.3828C19.5106 28.1209 15.4327 29.1086 10.9343 28.0916C7.48233 27.319 4.71486 25.4219 2.68082 22.5664C-1.34816 16.9141 -0.722297 9.46247 3.79563 4.56316C5.41895 2.80293 7.38454 1.53166 9.67284 0.75911C11.9905 -0.0232144 14.3668 -0.179681 16.7431 0.240818C19.0999 0.651539 21.2415 1.63922 23.119 3.18432C25.7594 1.0916 28.7322 0.0256809 32.0669 0.0256809C35.3918 0.0256809 38.3646 1.08182 40.9463 3.1452C46.931 -1.04024 52.8963 -1.05002 58.9397 3.12564C62.3037 0.485295 66.1958 -0.49261 70.4497 0.260378C73.7648 0.847121 76.5323 2.50956 78.6934 5.11079C83.2602 10.5871 82.7615 18.0191 79.2411 22.6838C76.8158 25.8913 73.6377 27.8275 69.6185 28.3458C65.609 28.8641 62.0592 27.7689 58.9397 25.3828ZM61.2378 5.53129C65.1494 11.3792 65.1299 17.1781 61.2378 22.9869C64.4845 25.7837 70.8995 26.5171 75.3979 22.2339C79.9647 17.8822 79.9354 10.6262 75.4174 6.31361C70.8702 1.96193 64.4551 2.74426 61.2378 5.53129ZM20.7818 5.52151C17.4081 2.62691 10.9832 2.0695 6.57288 6.32339C2.01584 10.7142 2.12341 18.1854 6.86625 22.4491C11.3353 26.4585 17.6623 25.7446 20.7818 22.9673C16.88 17.1586 16.88 11.3694 20.7818 5.52151ZM38.6775 5.50195C37.7387 4.70985 36.6239 4.172 35.4407 3.77106C33.9738 3.28211 32.4678 3.19409 30.9325 3.32122C28.9767 3.48747 27.2556 4.22089 25.6616 5.31615C25.4367 5.47261 25.4367 5.62908 25.6029 5.83444C25.8083 6.0887 26.0234 6.33317 26.1897 6.61677C26.9035 7.81959 27.4903 9.08109 27.8717 10.4306C28.0575 11.1054 28.2433 11.7899 28.2824 12.4842C28.3704 14.1858 28.4193 15.8678 27.9792 17.5595C27.5587 19.1926 26.9622 20.7182 26.0136 22.097C25.3682 23.0358 25.3584 23.1238 26.3657 23.6812C27.8912 24.5222 29.4754 25.1579 31.2552 25.2165C32.5461 25.2654 33.8271 25.2752 35.0593 24.8254C35.4798 24.6689 35.9296 24.6005 36.3208 24.3951C37.152 23.9844 37.9441 23.515 38.7264 23.0847C34.7561 17.1586 34.7561 11.3498 38.6775 5.50195ZM43.3519 23.0162C44.2711 23.8083 45.386 24.3266 46.5594 24.7374C47.1755 24.9525 47.8307 25.109 48.4761 25.1774C50.0701 25.3241 51.6641 25.3045 53.219 24.7765C54.3534 24.3951 55.4095 23.8768 56.3874 23.1923C56.6025 23.0358 56.5634 22.8793 56.4363 22.7033C55.2628 21.1191 54.4707 19.3784 54.0306 17.452C53.5026 15.1441 53.5613 12.8558 54.1284 10.5871C54.5 9.09087 55.1552 7.6729 56.0451 6.39185C56.6319 5.55085 56.6319 5.56063 55.8202 4.94455C55.7713 4.90543 55.7322 4.86631 55.6735 4.83698C54.1676 4.02531 52.6225 3.3799 50.872 3.31144C49.5714 3.25277 48.2708 3.23321 47.0191 3.68305C46.3052 3.94708 45.5815 4.172 44.897 4.49471C44.3298 4.76852 43.8311 5.15968 43.3421 5.47261C47.2538 11.3498 47.2538 17.1488 43.3519 23.0162ZM40.956 20.6302C41.0538 20.5617 41.1027 20.5421 41.1223 20.5128C42.3447 18.6646 43.0194 16.6501 43.0292 14.4302C43.0292 13.247 42.951 12.0539 42.5403 10.9489C42.1882 10.0101 41.6601 9.13976 41.2396 8.23031C41.0734 7.86848 40.9854 7.84892 40.7605 8.20097C39.7141 9.85363 39.0491 11.6334 39.01 13.6088C38.9905 14.5574 39.0002 15.5353 39.186 16.4545C39.3816 17.4226 39.7826 18.3516 40.1542 19.2709C40.3595 19.7403 40.6822 20.1705 40.956 20.6302ZM58.8615 7.93694C55.8593 12.1028 56.5047 17.5497 58.8908 20.5421C61.6681 17.0217 61.5507 11.2716 58.8615 7.93694ZM23.1386 20.5617C25.9843 16.9043 25.7007 11.0956 23.119 7.95649C20.3418 11.5552 20.4983 17.2564 23.1386 20.5617Z" fill="black"/>
</svg>
