<?xml version="1.0" encoding="UTF-8"?>
<svg id="Layer_1" xmlns="http://www.w3.org/2000/svg" version="1.1" viewBox="0 0 75 58">
  <!-- Generator: Adobe Illustrator 29.8.3, SVG Export Plug-In . SVG Version: 2.1.1 Build 3)  -->
  <path d="M0,0c12.31,4.32,24.53,8.82,36.86,13.03.43.15.89.15,1.32,0,12.31-4.24,24.53-8.71,36.81-13.03-4.34,6.98-8.74,13.94-13.19,20.87-2.06-.89-4.19-1.64-6.25-2.56,1.19-2.12,2.54-4.19,3.71-6.31-3.97,2.02-8.01,3.88-11.95,5.93,2.75,1.07,5.52,2.1,8.24,3.22.83.24,1.57.7,2.15,1.34.58.64.96,1.43,1.11,2.28-.1,1.89-.82,3.69-2.06,5.11-5.92,9.33-11.85,18.7-17.8,28.11-.14-2.46-.14-4.92,0-7.38,2.34-7.49,4.65-14.97,6.79-22.51.41-1.12-.84-1.74-1.63-2.12-2.26-1-4.4-2.35-6.71-3.19-2.34,1.02-4.6,2.25-6.92,3.37-.71.33-1.7,1-1.3,1.92,2.11,7.67,4.45,15.05,6.79,22.54.13,2.46.13,4.92,0,7.38l-17.52-27.7c-1.34-1.54-2.13-3.5-2.24-5.54.17-.84.56-1.62,1.14-2.26.58-.63,1.32-1.1,2.14-1.34,2.72-1.1,5.47-2.12,8.19-3.19-3.92-2.04-7.96-3.93-11.92-5.93,1.22,2.12,2.54,4.19,3.71,6.34-2.08.82-4.19,1.61-6.28,2.56C8.77,13.93,4.45,6.95,0,0Z"/>
</svg>