<?xml version="1.0" encoding="UTF-8"?>
<svg id="Layer_1" xmlns="http://www.w3.org/2000/svg" version="1.1" xmlns:xlink="http://www.w3.org/1999/xlink" viewBox="0 0 2313.14 1758">
  <!-- Generator: Adobe Illustrator 29.8.3, SVG Export Plug-In . SVG Version: 2.1.1 Build 3)  -->
  <defs>
    <style>
      .st0 {
        fill: url(#linear-gradient2);
      }

      .st1 {
        fill: url(#linear-gradient1);
      }

      .st2 {
        fill: url(#linear-gradient9);
      }

      .st3 {
        fill: url(#linear-gradient8);
      }

      .st4 {
        fill: url(#linear-gradient7);
      }

      .st5 {
        fill: url(#linear-gradient4);
      }

      .st6 {
        fill: url(#linear-gradient5);
      }

      .st7 {
        fill: url(#linear-gradient3);
      }

      .st8 {
        fill: url(#linear-gradient6);
      }

      .st9 {
        fill: url(#linear-gradient);
      }
    </style>
    <linearGradient id="linear-gradient" x1="54.7" y1="480.39" x2="54.7" y2="479.54" gradientTransform="translate(-34596.54 494370.19) scale(658.89 -1028.03)" gradientUnits="userSpaceOnUse">
      <stop offset=".04" stop-color="#8c8c8c"/>
      <stop offset=".19" stop-color="#b6b6b6"/>
      <stop offset=".4" stop-color="#ebebeb"/>
      <stop offset=".51" stop-color="#fff"/>
      <stop offset=".56" stop-color="#fafafa"/>
      <stop offset=".63" stop-color="#ebebeb"/>
      <stop offset=".71" stop-color="#d3d3d3"/>
      <stop offset=".79" stop-color="#b2b2b2"/>
      <stop offset=".87" stop-color="#878787"/>
      <stop offset=".95" stop-color="#535353"/>
      <stop offset=".96" stop-color="#4d4d4d"/>
    </linearGradient>
    <linearGradient id="linear-gradient1" x1="65.46" y1="468.05" x2="65.51" y2="467.28" gradientTransform="translate(-24574.53 149667.24) scale(398.69 -317.72)" gradientUnits="userSpaceOnUse">
      <stop offset="0" stop-color="#bfbfbf"/>
      <stop offset=".21" stop-color="#666"/>
      <stop offset=".27" stop-color="#595959"/>
      <stop offset=".52" stop-color="#292929"/>
      <stop offset=".7" stop-color="#0b0b0b"/>
      <stop offset=".81" stop-color="#000"/>
    </linearGradient>
    <linearGradient id="linear-gradient2" x1="54.71" y1="480.29" x2="54.71" y2="479.44" gradientTransform="translate(-34589.31 492257.35) scale(658.66 -1024.89)" gradientUnits="userSpaceOnUse">
      <stop offset=".04" stop-color="#8c8c8c"/>
      <stop offset=".19" stop-color="#b6b6b6"/>
      <stop offset=".4" stop-color="#ebebeb"/>
      <stop offset=".51" stop-color="#fff"/>
      <stop offset=".56" stop-color="#fafafa"/>
      <stop offset=".63" stop-color="#ebebeb"/>
      <stop offset=".71" stop-color="#d3d3d3"/>
      <stop offset=".79" stop-color="#b2b2b2"/>
      <stop offset=".87" stop-color="#878787"/>
      <stop offset=".95" stop-color="#535353"/>
      <stop offset=".96" stop-color="#4d4d4d"/>
    </linearGradient>
    <linearGradient id="linear-gradient3" x1="67.88" y1="479.11" x2="67.88" y2="479.97" gradientTransform="translate(-23321.99 464828.84) scale(366.58 -968.33)" gradientUnits="userSpaceOnUse">
      <stop offset=".04" stop-color="#4d4d4d"/>
      <stop offset=".05" stop-color="#5a5a5a"/>
      <stop offset=".08" stop-color="gray"/>
      <stop offset=".11" stop-color="#a3a3a3"/>
      <stop offset=".14" stop-color="silver"/>
      <stop offset=".18" stop-color="#d7d7d7"/>
      <stop offset=".23" stop-color="#e9e9e9"/>
      <stop offset=".28" stop-color="#f6f6f6"/>
      <stop offset=".35" stop-color="#fdfdfd"/>
      <stop offset=".51" stop-color="#fff"/>
      <stop offset=".63" stop-color="#fdfdfd"/>
      <stop offset=".7" stop-color="#f5f5f5"/>
      <stop offset=".76" stop-color="#e7e7e7"/>
      <stop offset=".81" stop-color="#d3d3d3"/>
      <stop offset=".85" stop-color="#bababa"/>
      <stop offset=".89" stop-color="#9b9b9b"/>
      <stop offset=".93" stop-color="#777"/>
      <stop offset=".96" stop-color="#4d4d4d"/>
    </linearGradient>
    <linearGradient id="linear-gradient4" x1="67.97" y1="479.21" x2="67.97" y2="480.07" gradientTransform="translate(-23588.82 467037.88) scale(366.58 -971.79)" gradientUnits="userSpaceOnUse">
      <stop offset=".04" stop-color="#4d4d4d"/>
      <stop offset=".05" stop-color="#5a5a5a"/>
      <stop offset=".08" stop-color="gray"/>
      <stop offset=".11" stop-color="#a3a3a3"/>
      <stop offset=".14" stop-color="silver"/>
      <stop offset=".18" stop-color="#d7d7d7"/>
      <stop offset=".23" stop-color="#e9e9e9"/>
      <stop offset=".28" stop-color="#f6f6f6"/>
      <stop offset=".35" stop-color="#fdfdfd"/>
      <stop offset=".51" stop-color="#fff"/>
      <stop offset=".63" stop-color="#fdfdfd"/>
      <stop offset=".7" stop-color="#f5f5f5"/>
      <stop offset=".76" stop-color="#e7e7e7"/>
      <stop offset=".81" stop-color="#d3d3d3"/>
      <stop offset=".85" stop-color="#bababa"/>
      <stop offset=".89" stop-color="#9b9b9b"/>
      <stop offset=".93" stop-color="#777"/>
      <stop offset=".96" stop-color="#4d4d4d"/>
    </linearGradient>
    <linearGradient id="linear-gradient5" x1="67.91" y1="480.03" x2="68.93" y2="479.39" gradientTransform="translate(-24045.21 477173.3) scale(360.6 -993.78)" gradientUnits="userSpaceOnUse">
      <stop offset=".02" stop-color="#f5f5f5"/>
      <stop offset=".33" stop-color="#f0f0f0"/>
      <stop offset=".69" stop-color="#e2e2e2"/>
      <stop offset=".73" stop-color="#e0e0e0"/>
      <stop offset=".96" stop-color="#b3b3b3"/>
    </linearGradient>
    <linearGradient id="linear-gradient6" x1="67.19" y1="479.17" x2="67.19" y2="480.03" gradientTransform="translate(-24757.11 469698.94) scale(379.79 -978.39)" gradientUnits="userSpaceOnUse">
      <stop offset=".04" stop-color="#4d4d4d"/>
      <stop offset=".05" stop-color="#5a5a5a"/>
      <stop offset=".08" stop-color="gray"/>
      <stop offset=".11" stop-color="#a3a3a3"/>
      <stop offset=".14" stop-color="silver"/>
      <stop offset=".18" stop-color="#d7d7d7"/>
      <stop offset=".23" stop-color="#e9e9e9"/>
      <stop offset=".28" stop-color="#f6f6f6"/>
      <stop offset=".35" stop-color="#fdfdfd"/>
      <stop offset=".51" stop-color="#fff"/>
      <stop offset=".63" stop-color="#fdfdfd"/>
      <stop offset=".7" stop-color="#f5f5f5"/>
      <stop offset=".76" stop-color="#e7e7e7"/>
      <stop offset=".81" stop-color="#d3d3d3"/>
      <stop offset=".85" stop-color="#bababa"/>
      <stop offset=".89" stop-color="#9b9b9b"/>
      <stop offset=".93" stop-color="#777"/>
      <stop offset=".96" stop-color="#4d4d4d"/>
    </linearGradient>
    <linearGradient id="linear-gradient7" x1="66.38" y1="467.78" x2="66.32" y2="467.01" gradientTransform="translate(-24368.31 148943.03) scale(387.61 -317.38)" gradientUnits="userSpaceOnUse">
      <stop offset="0" stop-color="#bfbfbf"/>
      <stop offset=".21" stop-color="#666"/>
      <stop offset=".27" stop-color="#595959"/>
      <stop offset=".52" stop-color="#292929"/>
      <stop offset=".7" stop-color="#0b0b0b"/>
      <stop offset=".81" stop-color="#000"/>
    </linearGradient>
    <linearGradient id="linear-gradient8" x1="54.84" y1="480.48" x2="54.84" y2="479.62" gradientTransform="translate(-35277.97 508901.88) scale(659.21 -1059.14)" gradientUnits="userSpaceOnUse">
      <stop offset=".04" stop-color="#8c8c8c"/>
      <stop offset=".19" stop-color="#b6b6b6"/>
      <stop offset=".4" stop-color="#ebebeb"/>
      <stop offset=".51" stop-color="#fff"/>
      <stop offset=".56" stop-color="#fafafa"/>
      <stop offset=".63" stop-color="#ebebeb"/>
      <stop offset=".71" stop-color="#d3d3d3"/>
      <stop offset=".79" stop-color="#b2b2b2"/>
      <stop offset=".87" stop-color="#878787"/>
      <stop offset=".95" stop-color="#535353"/>
      <stop offset=".96" stop-color="#4d4d4d"/>
    </linearGradient>
    <linearGradient id="linear-gradient9" x1="65.97" y1="467.78" x2="66.02" y2="467.01" gradientTransform="translate(-25094.91 148989.84) scale(394.84 -317.47)" gradientUnits="userSpaceOnUse">
      <stop offset="0" stop-color="#bfbfbf"/>
      <stop offset=".21" stop-color="#666"/>
      <stop offset=".27" stop-color="#595959"/>
      <stop offset=".52" stop-color="#292929"/>
      <stop offset=".7" stop-color="#0b0b0b"/>
      <stop offset=".81" stop-color="#000"/>
    </linearGradient>
  </defs>
  <path d="M45.87,1608.17c50.45,0,74.91,25.99,74.91,73.38,0,44.34-24.46,73.38-76.44,73.38H0v-146.77h45.87ZM99.37,1681.56c0-39.75-19.87-56.57-58.1-56.57h-22.93v114.66h19.87c44.34,0,61.15-18.35,61.15-58.1ZM264.49,1632.64c-6.12-6.12-18.35-9.17-30.58-9.17-21.4,0-32.11,9.17-32.11,21.4s7.64,16.82,27.52,25.99c35.16,15.29,48.92,21.4,48.92,45.87,0,19.87-15.29,41.28-53.51,41.28-19.87,0-39.75-6.12-51.98-15.29l9.17-15.29c10.7,7.64,27.52,13.76,44.34,13.76,22.93,0,33.63-10.7,33.63-24.46,0-12.23-10.7-16.82-35.16-27.52-30.58-12.23-42.81-21.4-42.81-44.34,0-21.4,15.29-39.75,51.98-39.75,13.76,0,29.05,4.59,38.22,12.23l-7.64,15.29ZM538.15,1756.47h-18.35l-13.76-41.28h-68.8l-13.76,41.28h-19.87c15.29-48.92,33.63-100.9,58.1-148.3h16.82c18.35,32.11,45.87,102.43,59.62,148.3ZM499.93,1698.38c-7.64-21.4-18.35-48.92-29.05-68.8-9.17,15.29-21.4,48.92-29.05,68.8h58.1ZM692.57,1608.17h19.87v90.2c0,30.58-9.17,58.1-55.04,58.1-19.87,0-36.69-6.12-45.87-18.35s-10.7-25.99-10.7-41.28v-90.2h19.87v87.14c0,25.99,4.59,45.87,35.16,45.87s36.69-19.87,36.69-45.87v-85.62ZM842.39,1756.47h-18.35v-129.95h-44.34v-16.82h108.55v16.82h-45.87v129.95ZM940.24,1681.56c0-44.34,29.05-74.91,71.86-74.91s71.86,30.58,71.86,74.91c0,41.28-24.46,76.44-71.86,76.44-42.81,0-71.86-30.58-71.86-76.44M960.11,1681.56c0,32.11,18.35,59.62,51.98,59.62s51.98-29.05,51.98-59.62c0-32.11-19.87-58.1-51.98-58.1s-51.98,22.93-51.98,58.1M1313.28,1608.17v146.77h-19.87v-126.89c-6.12,9.17-19.87,32.11-25.99,42.81s-13.76,29.05-19.87,41.28h-21.4c-12.23-27.52-29.05-58.1-45.87-84.09v126.89h-19.87v-146.77h27.52c16.82,22.93,22.93,32.11,30.58,45.87,9.17,15.29,12.23,21.4,18.35,36.69,12.23-27.52,30.58-58.1,48.92-82.56h27.52ZM1388.19,1681.56c0-44.34,29.05-74.91,71.86-74.91s71.86,30.58,71.86,74.91c0,41.28-24.46,76.44-71.86,76.44-42.81,0-71.86-30.58-71.86-76.44M1409.59,1681.56c0,32.11,18.35,59.62,51.98,59.62s51.98-29.05,51.98-59.62c0-32.11-19.87-58.1-51.98-58.1s-51.98,22.93-51.98,58.1M1709.25,1715.19c0,13.76-6.12,24.46-16.82,32.11s-22.93,9.17-39.75,9.17h-44.34v-146.77h42.81c29.05,0,44.34,15.29,44.34,38.22,0,13.76-6.12,24.46-19.87,30.58,21.4,3.06,33.63,18.35,33.63,36.69ZM1628.22,1673.91h19.87c18.35,0,29.05-6.12,29.05-24.46,0-16.82-10.7-24.46-29.05-24.46h-19.87v48.92ZM1689.37,1713.66c0-19.87-15.29-25.99-38.22-25.99h-22.93v53.51h24.46c25.99,0,36.69-9.17,36.69-27.52ZM1790.27,1608.17h19.87v146.77h-19.87v-146.77ZM1923.28,1739.65h64.21v16.82h-84.09v-148.3h19.87v131.48ZM2074.64,1626.52v42.81h51.98v16.82h-51.98v53.51h68.8v16.82h-88.67v-148.3h84.09v18.35h-64.21ZM2299.38,1632.63c-6.12-6.12-18.35-9.17-30.58-9.17-21.4,0-32.11,9.17-32.11,21.4s7.64,16.82,27.52,25.99c35.16,15.29,48.92,21.4,48.92,45.87,0,19.87-15.29,41.28-53.51,41.28-19.87,0-39.75-6.12-51.98-15.29l9.17-15.29c10.7,7.64,27.52,13.76,44.34,13.76,22.93,0,33.63-10.7,33.63-24.46,0-12.23-10.7-16.82-35.16-27.52-30.58-12.23-42.81-21.4-42.81-44.34,0-21.4,15.29-39.75,51.98-39.75,13.76,0,29.05,4.59,38.22,12.23l-7.64,15.29Z"/>
  <path class="st9" d="M1714.78,915.78c-4.59-4.59-29.05-25.99-29.05-25.99l-486.17-377.62c84.09,82.56,207.92,217.1,246.14,336.35,10.7,32.11,15.29,62.68,15.29,90.2,0,24.46-6.12,51.98-15.29,79.5-19.87,50.45-61.15,108.55-123.84,174.29-21.4,22.93-114.66,114.66-145.24,145.24-6.12,6.12-10.7,15.29-12.23,25.99v27.52l545.8-425.02c6.12-4.59,18.35-13.76,18.35-29.05-1.53-9.17-10.7-18.35-13.76-21.4h0Z"/>
  <path class="st1" d="M1363.15,1216.96c-3.06-3.06,103.96-79.5,163.59-209.45,16.82-36.69,24.46-51.98,59.62-55.04,36.69-3.06,81.03-6.12,102.43-7.64,9.17,0,12.23,1.53,13.76,6.12,1.53,3.06-1.53,7.64-9.17,12.23-56.57,39.75-140.65,108.55-255.32,198.75-4.59,6.12-73.38,56.57-74.91,55.04h0Z"/>
  <path class="st0" d="M1442.65,554.97c-10.7-32.11-15.29-62.68-15.29-90.2,0-24.46,6.12-51.98,15.29-79.5,19.87-50.45,61.15-108.55,123.84-174.29,19.87-21.4,102.43-103.96,145.24-145.24,7.64-7.64,10.7-15.29,13.76-25.99,1.53-9.17,1.53-16.82,1.53-19.87v-9.17l-547.33,425.02c-3.06,3.06-12.23,10.7-16.82,19.87-1.53,3.06-1.53,10.7,0,16.82,3.06,7.64,7.64,12.23,10.7,15.29,4.59,3.06,27.52,22.93,27.52,22.93l486.17,377.62c-85.62-82.56-206.39-217.1-244.61-333.29h0Z"/>
  <path d="M1415.13,547.33c-9.17-27.52-15.29-56.57-15.29-84.09,0-25.99,7.64-50.45,16.82-76.44,44.34-108.55,253.79-293.54,296.6-328.7-35.16,27.52-189.58,159-229.33,200.28-65.74,64.21-116.19,136.07-116.19,206.39,0,76.44,53.51,154.41,114.66,226.27,38.22,45.87,74.91,85.62,111.61,117.72,38.22,35.16,64.21,58.1,91.73,79.5-30.58-29.05-220.15-197.22-270.61-340.93h0Z"/>
  <path class="st7" d="M1442.65,554.97c-10.7-32.11-15.29-62.68-15.29-90.2,0-24.46,6.12-51.98,15.29-79.5,19.87-50.45,61.15-108.55,123.84-174.29,19.87-21.4,102.43-103.96,145.24-145.24,1.53-1.53,3.06-3.06,4.59-6.12-42.81,33.63-252.26,220.15-296.6,328.7-10.7,25.99-16.82,50.45-16.82,76.44,0,27.52,4.59,56.57,15.29,84.09,50.45,143.71,236.97,310.35,269.08,340.93-87.14-85.62-206.39-218.62-244.61-334.82h0Z"/>
  <path class="st5" d="M1471.69,854.62c-50.45-143.71-241.56-314.94-272.13-342.46,84.09,82.56,207.92,217.1,246.14,336.35,10.7,32.11,15.29,62.68,15.29,90.2,0,24.46-6.12,51.98-15.29,79.5-19.87,50.45-61.15,108.55-123.84,174.29-21.4,22.93-114.66,114.66-145.24,145.24-1.53,1.53-3.06,3.06-4.59,6.12,42.81-35.16,250.73-220.15,296.6-328.7,10.7-25.99,16.82-50.45,16.82-76.44,1.53-27.52-3.06-55.04-13.76-84.09Z"/>
  <path d="M1405.95,712.44c-38.22-45.87-74.91-85.62-111.61-117.72-38.22-35.16-67.27-61.15-94.79-82.56,32.11,27.52,223.21,200.28,272.13,342.46,9.17,27.52,15.29,56.57,15.29,84.09,0,25.99-7.64,50.45-16.82,76.44-45.87,108.55-253.79,293.54-298.12,328.7v1.53c36.69-27.52,191.11-159,230.86-200.28,65.74-64.21,116.19-136.07,116.19-206.39,0-76.44-53.51-154.41-113.13-226.27h0ZM956.47,463.24c0,76.44-51.98,152.88-120.78,223.21-44.34,44.34-88.67,84.09-129.95,116.19-42.81,35.16-76.44,58.1-107.02,79.5,35.16-27.52,250.73-194.16,307.3-336.35,10.7-27.52,16.82-55.04,16.82-82.56s-6.12-55.04-16.82-82.56c-56.57-142.18-272.13-308.83-307.3-336.35,30.58,21.4,64.21,44.34,107.02,79.5,41.28,32.11,85.62,71.86,129.95,116.19,68.8,70.33,120.78,148.3,120.78,223.21h0Z"/>
  <path class="st6" d="M598.73,882.14l-9.17,6.12V38.22l9.17,6.12c32.11,27.52,232.38,194.16,284.36,336.35,10.7,27.52,16.82,55.04,16.82,82.56s-6.12,55.04-16.82,82.56c-53.51,142.18-252.26,308.83-284.36,336.35"/>
  <path class="st8" d="M598.73,882.14c35.16-27.52,250.73-194.16,307.3-336.35,10.7-27.52,16.82-55.04,16.82-82.56s-6.12-55.04-16.82-82.56c-56.57-142.18-272.13-308.83-307.3-336.35,32.11,27.52,232.38,194.16,284.36,336.35,10.7,27.52,16.82,55.04,16.82,82.56s-6.12,55.04-16.82,82.56c-53.51,142.18-252.26,308.83-284.36,336.35Z"/>
  <path d="M1717.84,912.72c-39.75-38.22-221.68-210.98-270.6-359.28-10.7-30.58-15.29-59.62-15.29-88.67,0-25.99,6.12-50.45,15.29-76.44,22.93-58.1,71.86-120.78,122.31-172.76,21.4-22.93,114.66-114.66,145.24-146.77,7.64-7.64,12.23-16.82,13.76-25.99s3.06-18.35,3.06-24.46V1.53l-554.97,429.6c-6.12,4.59-15.29,12.23-18.35,24.46-3.06-10.7-12.23-19.87-18.35-24.46L584.97,0v928.01l554.97-431.13c6.12-4.59,15.29-12.23,18.35-24.46,3.06,9.17,9.17,16.82,12.23,18.35,39.75,38.22,223.21,210.98,272.13,359.28,10.7,30.58,15.29,59.62,15.29,88.67,0,25.99-6.12,50.45-15.29,76.44-22.93,58.1-71.86,120.78-122.31,172.76-21.4,22.93-114.66,116.19-145.24,146.77-6.12,6.12-12.23,16.82-13.76,25.99-1.53,7.64-3.06,15.29-3.06,24.46v16.82l554.97-431.13c7.64-6.12,19.87-16.82,19.87-32.11-1.53-13.76-12.23-22.93-15.29-25.99h0ZM1136.88,492.29l-547.33,425.02V10.7l545.8,425.02c6.12,4.59,18.35,15.29,18.35,29.05,0,12.23-10.7,22.93-16.82,27.52ZM1162.87,472.41c-1.53-6.12-1.53-12.23,0-16.82,3.06-9.17,12.23-16.82,16.82-19.87L1725.48,10.7v7.64c0,3.06,0,10.7-1.53,19.87-1.53,10.7-6.12,19.87-13.76,25.99-41.28,41.28-125.36,123.84-145.24,145.24-62.68,65.74-103.96,123.84-123.84,174.29-10.7,27.52-15.29,53.51-15.29,79.5,0,29.05,6.12,59.62,15.29,90.2,38.22,117.72,159,250.73,243.09,333.29l-483.11-376.1s-22.93-19.87-27.52-22.93c-3.06-3.06-7.64-9.17-10.7-15.29h0ZM1708.66,967.76l-545.8,425.02v-7.64c0-7.64,1.53-13.76,1.53-19.87,1.53-10.7,6.12-19.87,13.76-25.99l145.24-145.24c62.68-65.74,103.96-123.84,123.84-174.29,10.7-27.52,15.29-53.51,15.29-79.5,0-29.05-6.12-59.62-15.29-90.2-39.75-119.25-162.06-253.79-246.14-336.35l487.7,379.15s24.46,21.4,29.05,25.99c3.06,3.06,12.23,12.23,12.23,22.93-3.06,10.7-15.29,21.4-21.4,25.99h0Z"/>
  <path class="st4" d="M1514.5,741.49c1.53-1.53-55.04-56.57-62.68-62.68-62.68-58.1-113.13-148.3-113.13-148.3-18.35-36.69-24.46-51.98-59.62-55.04-36.69-3.06-61.15-4.59-82.56-4.59-9.17,0-12.23,1.53-13.76,6.12-1.53,3.06,1.53,7.64,9.17,12.23,56.57,39.75,140.65,107.02,255.32,198.75,7.64,4.59,65.74,55.04,67.27,53.51h0Z"/>
  <path class="st3" d="M589.55,889.79l9.17-6.12c30.58-21.4,64.21-44.34,107.02-79.5,41.28-32.11,85.62-71.86,129.95-116.19,68.8-70.33,120.78-146.77,120.78-223.21s-51.98-152.88-120.78-223.21c-44.34-44.34-88.67-84.09-129.95-116.19-42.81-35.16-76.44-58.1-107.02-79.5l-9.17-6.12V10.7l545.8,425.02c6.12,4.59,18.35,15.29,18.35,29.05s-10.7,22.93-18.35,29.05l-545.8,423.49v-27.52Z"/>
  <path class="st2" d="M794.42,741.49s13.76-13.76,45.87-42.81c7.64-6.12,15.29-13.76,21.4-19.87,62.68-58.1,113.13-148.3,113.13-148.3,18.35-36.69,24.46-51.98,59.62-55.04,36.69-3.06,61.15-4.59,82.56-4.59,9.17,0,12.23,1.53,13.76,6.12,1.53,3.06-1.53,7.64-9.17,12.23-56.57,39.75-139.12,108.55-255.32,198.75-7.64,6.12-15.29,12.23-22.93,16.82-30.58,22.93-47.39,38.22-48.92,36.69h0Z"/>
</svg>