<?xml version="1.0" encoding="UTF-8"?>
<svg id="Layer_1" xmlns="http://www.w3.org/2000/svg" version="1.1" viewBox="0 0 1670.66 360">
  <!-- Generator: Adobe Illustrator 29.8.3, SVG Export Plug-In . SVG Version: 2.1.1 Build 3)  -->
  <defs>
    <style>
      .st0 {
        fill-rule: evenodd;
      }

      .st0, .st1 {
        fill: #c4151c;
      }
    </style>
  </defs>
  <path class="st0" d="M1540.12,90.37h127.81v36.77h-24.49v184.21h26.62v42.46h-130.04v-42.15h23.79v-183.66h-23.78l.09-37.63ZM1602.97,0C1644.94,0,1668.96,11.84,1670.58,23.69c1.61,11.85-19.18,23.69-66.81,23.69C1512.37,47.38,1522.76,0,1602.97,0ZM1285.66,92.91h98.34v40.07h2.65l50.72-34.3c34.17-23.11,74.73,6.35,74.73,30.13v105.16h-74.48v-91.55c0-4.22-7.18-8.69-14-1.08-2.38,2.66-29.63,29.06-37.61,37.04-2.37,2.37-2.26,2.55-2.26,5.9v129.89h26.58v42.21h-122.39v-42.28h24.25v-181.41h-26.7l.16-39.79Z"/>
  <path class="st1" d="M1095.94,89.98c-44.99,0-71.77,23.74-71.77,82.3h76.03c0-15.59.29-27.62.29-36.6s9.24-11.19,13.56-11.19c8.87,0,31.05.5,34.62.5,9.3,0,12.31,12.4,12.31,19.49l-.16,57.49-77.37.15c-36.8,0-55.94,19.88-55.94,42.2,0,5.18-.77,39.04-.77,62.39,0,45.22,46.86,52.5,52.32,52.5,17.9,0,175.01.15,175.01.15l-.05-47.8h-18.63s.08-165,.08-165c0-27.58-29.97-56.57-62.33-56.57-30.25,0-52.11-.03-77.2-.03h0ZM1160.52,302.49c0,1.3.06,20.87.06,22.17,0,.02-39.83,0-43.91,0-9.6,0-17.26-4.82-17.26-14.42,0-17.7-.01-54.68-.01-58.12,0-13.78,2.57-25.42,21.7-25.42l39.86.02-.44,75.77Z"/>
  <path class="st0" d="M771.7,92.91h98.34v40.07h2.65l50.72-34.3c34.17-23.11,74.73,6.35,74.73,30.13v105.16h-74.48v-91.55c0-4.22-7.18-8.69-14-1.08-2.38,2.66-29.63,29.06-37.61,37.04-2.37,2.37-2.26,2.55-2.26,5.9v129.89h26.58v42.21h-122.39v-42.28h24.25v-181.41h-26.7l.15-39.79ZM510.5,92.91h98.34v40.07h2.65l50.72-34.3c34.17-23.11,74.73,6.35,74.73,30.13v105.16h-74.48v-91.55c0-4.22-7.18-8.69-14-1.08-2.38,2.66-29.63,29.06-37.61,37.04-2.37,2.37-2.26,2.55-2.26,5.9v129.89h26.58v42.21h-122.39v-42.28h24.25v-181.41h-26.7l.16-39.79Z"/>
  <path class="st1" d="M399.72,274.8c0,30.09,2.03,49.68-20.42,49.68-4.25,0-29.85.19-33.57.19s-19.35-1.02-19.35-17.06l.58-62.82h145.8v-103.94c0-26.92-31.05-48.03-61.04-48.03s-99.23.44-104.47.44c-20.42,0-56.24,12.54-56.24,47.99v152.98c0,61,47.99,65.77,74.2,65.77s65.54-.67,89.68-.67c30.48,0,60.4-29,60.4-51.6,0-11.11-.37-21.82-.37-32.93h-75.2ZM344.83,126.59c2,0,35.13.22,36.52.22,7.09,0,16.19,4.07,16.19,17.26l-.45,73.7-69.61-.2.09-74.4c-.42-14.88,15.27-16.59,17.27-16.59h0Z"/>
  <path class="st0" d="M12.93,2.32h1497.71v45.34H133.62v108.67h29.58v-24.79h37.17v91.7h-34.45v-21.13h-32.24v110.97h50.5v46.29H5.85v-46.37h53.04V50.05H12.89l.04-47.73Z"/>
</svg>