<?xml version="1.0" encoding="UTF-8"?>
<svg xmlns="http://www.w3.org/2000/svg" version="1.1" viewBox="0 0 311.81 191.88">
  <!-- Generator: Adobe Illustrator 29.8.3, SVG Export Plug-In . SVG Version: 2.1.1 Build 3)  -->
  <defs>
    <style>
      .st0 {
        fill: #a70230;
      }
    </style>
  </defs>
  <g id="Layer_1" image-rendering="optimizeQuality" shape-rendering="geometricPrecision" text-rendering="geometricPrecision">
    <path class="st0" d="M0,0l6.21,191.88h30.2l-.66-79.57h25.32v-24.8h-25.32l.09-62.44h33.06l-.18-25.07H0ZM80.67,0l3.82,191.88h31.19L116.31,0h-35.64ZM226.87,0v24.2h24.63l-.71,167.68h30.17l6.41-167.7h24.43l-.19-24.18h-84.75ZM163.34,88.81l.34-65.17h17.42c7.89,14.51,12.97,33.71,16.94,65.17h-34.7ZM135.52,191.87h28.87l.32-79.34h34.59c2.72,14,3.38,57.23,3.55,79.34h28.01c2.65-97.96-5.56-153.32-28.24-191.87h-69.74l2.64,191.87Z"/>
  </g>
</svg>