<?xml version="1.0" encoding="UTF-8"?>
<svg id="Layer_1" xmlns="http://www.w3.org/2000/svg" version="1.1" viewBox="0 0 78.78 18.53">
  <!-- Generator: Adobe Illustrator 29.8.3, SVG Export Plug-In . SVG Version: 2.1.1 Build 3)  -->
  <defs>
    <style>
      .st0 {
        fill: #131e29;
      }
    </style>
  </defs>
  <path class="st0" d="M45.73,16.38c0,.15,0,.23.14.23.07,0,.14-.04.19-.08L70.63.65c.4-.28.88-.43,1.37-.42h5.4c.36,0,.71.14.97.4.26.26.4.61.4.97v10.31c.07.53-.03,1.06-.27,1.53-.24.47-.63.85-1.1,1.1l-6.48,3.92c-.07.04-.14.06-.22.07-.08,0-.16,0-.16-.29V6.13c0-.15,0-.23-.14-.23-.07,0-.13.03-.18.07l-17.97,11.72c-.4.27-.88.42-1.37.41h-11.92c-.36,0-.71-.14-.97-.4-.26-.26-.4-.61-.4-.97V1.86c0-.11,0-.21-.15-.21-.07.01-.13.04-.19.08l-11.86,7.14c-.11.07-.14.14-.14.19s0,.08.1.18l8.46,8.45c.11.11.19.21.19.3s-.12.14-.27.14h-7.64c-.24.03-.49,0-.73-.07-.24-.07-.45-.19-.64-.34l-5.15-5.15s-.04-.05-.07-.06c-.03-.01-.06-.02-.09-.02-.05-.01-.1-.01-.15,0l-8.6,5.2c-.4.27-.88.41-1.37.4H1.39c-.36,0-.71-.14-.97-.4-.26-.26-.4-.61-.4-.97V6.6c-.07-.53.02-1.06.27-1.53.25-.47.63-.85,1.1-1.1L7.98,0c.05-.01.11-.01.16,0,.11,0,.16.11.16.33v13.55c0,.14,0,.21.14.21.07-.02.13-.04.19-.08L30.89.61c.43-.29.95-.43,1.47-.4h11.98c.36,0,.71.14.97.4.26.26.4.61.4.97v14.79h.01Z"/>
</svg>