<?xml version="1.0" encoding="utf-8"?>
<!-- Generator: Adobe Illustrator 29.8.3, SVG Export Plug-In . SVG Version: 9.03 Build 0)  -->
<svg version="1.0" id="Layer_1" xmlns="http://www.w3.org/2000/svg" xmlns:xlink="http://www.w3.org/1999/xlink" x="0px" y="0px"
	 viewBox="0 0 565.8 95.19" style="enable-background:new 0 0 565.8 95.19;" xml:space="preserve">
<g transform="translate(0.000000,132.000000) scale(0.100000,-0.100000)">
	<path d="M508,1317.12c-297-57-492-228-508-445c-16-231,152-421,433-485c116-27,331-25,439,4c104,29,212,82,267,131l44,40l-47,1
		c-39,0-59-7-109-40c-109-70-273-107-429-96c-224,15-389,106-462,254c-30,61-33,74-33,162c0,84,3,102,29,153c59,121,212,229,371,262
		c88,18,175,20,175,3c0-7-39-65-86-128c-104-139-197-278-231-344c-19-37-23-57-18-84c10-52,61-99,116-107c25-4,202-5,395-3
		c277,2,354,6,367,17c28,23,67,114,75,176c23,183-75,357-257,454c-68,36-79,37-96,14c-11-15-5-21,44-51c156-93,244-264,212-414
		c-20-93-3-88-338-88H567l-8,23c-15,37,49,142,238,387c61,79,111,152,111,161c0,11-14,21-42,29C822,1315.12,554,1325.12,508,1317.12
		z"/>
	<path d="M1548,934.12c0-176,0-180,28-232c22-42,38-58,77-79l49-25l744-3l744-3l138,90l139,89l119-89l120-90l138,3l139,3l-178,134
		c-142,107-175,137-165,146c7,7,72,51,144,98l132,85l4-152c3-83,11-164,17-181c16-40,57-82,106-108c40-22,41-22,765-22
		c716,0,726,0,765,21c111,58,114,203,5,261c-42,22-52,23-302,23h-259l6,22c4,13,20,37,36,53l29,30l265,3l265,3v50v50l-282-3
		c-282-3-283-3-339-29c-99-46-173-142-186-239l-6-40h305c290,0,306-1,323-20c25-28,13-65-26-79c-21-7-143-11-345-11h-314v210v210
		h-95h-95v-205v-205h-196c-112,0-203,4-214,10c-30,16-40,74-40,243v157h-151h-150l-130-85c-72-47-135-85-141-85s-62,38-125,86
		l-114,85l-407-3c-393-3-409-4-454-25c-62-29-134-97-164-155c-37-73-35-78,42-78h67l-41-44c-22-24-48-58-56-75l-17-31l-246,2l-246,3
		l-20,27c-19,25-21,46-25,203l-5,175h-88h-89V934.12z M3228,949.12c74-54,139-103,144-107c4-4-36-37-90-73l-99-66h-342
		c-322,0-343,1-343,18c0,10,7,28,16,41c32,45,67,51,299,51h216l-3,48l-3,47l-267,3c-148,1-268,5-268,8s7,18,15,33
		c28,55,58,61,324,61h241v26C3068,1069.12,3057,1076.12,3228,949.12z"/>
</g>
</svg>
