<?xml version="1.0" encoding="UTF-8"?>
<svg id="Layer_1" xmlns="http://www.w3.org/2000/svg" version="1.1" viewBox="0 0 1743.58 2426.49">
  <!-- Generator: Adobe Illustrator 29.8.3, SVG Export Plug-In . SVG Version: 2.1.1 Build 3)  -->
  <defs>
    <style>
      .st0 {
        fill: #fff;
      }

      .st0, .st1 {
        fill-rule: evenodd;
      }
    </style>
  </defs>
  <path class="st1" d="M1088.55,69.14C995.66,15.45,931.13.01,871.85,0c-59.26.01-123.94,15.46-216.83,69.14C384.68,225.38.38,583.7,0,1213.24c.36,629.55,384.67,987.87,655.03,1144.11,92.88,53.68,157.57,69.13,216.83,69.13s123.81-15.45,216.7-69.13c270.34-156.25,654.65-514.56,655.02-1144.11-.39-629.54-384.68-987.87-655.02-1144.1ZM1076.7,2307.68c-87.81,50.74-148.83,70.75-204.84,70.78-56.02-.03-117.17-20.04-204.97-70.78C411.32,2159.97,48.04,1808.24,47.69,1213.13c.35-595.09,363.63-946.86,619.19-1094.54,87.81-50.74,148.94-70.5,204.97-70.52,56.03.01,117.05,19.77,204.84,70.52,255.54,147.69,618.83,499.45,619.2,1094.54h0c-.38,595.12-363.66,946.84-619.2,1094.56Z"/>
  <path class="st1" d="M1022.21,646.49l-103.41-42.14c-8.21-3.15-11.72,1.74-11.7,9.81l.03.08-.16,323.23,144.13,233.42,87.27-.1c15.25-181.28,78.48-346.15,165.36-497.35,1.72-12.17-5.45-13.9-15.86-12.17-22.37,13.24-44.1,25.2-67.56,38.23l-.32.05c53.12-96.72,141.1-171.65,207.39-199.79l-.05-.05c-105.35,181.33-189.63,439.62-182.69,662.07.77,6.41,3.5,9.12,12.14,9.12h.03l20.14-.04c5.68.04,8.11,2.75,8.11,7.21l-.05,32.36c.05,5.01-3.19,7.17-7.5,7.29H466.04c-4.28-.13-7.55-2.3-7.48-7.29l-.06-32.36c0-4.46,2.44-7.17,8.11-7.21l20.19.04c8.64,0,11.35-2.71,12.11-9.12,6.95-222.44-77.33-480.74-182.68-662.07l-.05.05c66.31,28.13,154.29,103.07,207.4,199.79l-.32-.05c-23.46-13.03-45.19-24.98-67.55-38.23-10.43-1.74-17.6,0-15.86,12.17,86.9,151.19,150.11,316.07,165.36,497.35l87.27.1,144.13-233.42-.17-323.23.03-.08c.03-8.07-3.51-12.96-11.71-9.81l-103.41,42.14c81.67-93.84,138.15-204.2,150.32-327.58h.22c12.15,123.39,68.65,233.74,150.32,327.58,0,0-81.67-93.84,0,0h0Z"/>
  <path class="st0" d="M907.08,1076.4l58.64,94.48h-58.64v-94.48h0ZM836.49,1076.4l-58.66,94.48h58.66v-94.48h0Z"/>
  <path class="st1" d="M1226.99,1277.95c4.28-.13,7.55-2.28,7.47-7.29l.08-32.35c0-4.46-2.45-7.17-8.11-7.22h-709.32c-5.67.05-8.11,2.76-8.11,7.22l.05,32.35c-.05,5.02,3.2,7.17,7.5,7.29h710.43ZM1277.55,1340.83c4.31-.1,7.55-2.26,7.5-7.28l.05-32.35c0-4.49-2.44-7.2-8.11-7.22H466.67c-5.67.03-8.11,2.74-8.11,7.22l.06,32.35c-.05,5.02,3.2,7.17,7.48,7.28h811.44ZM1226.99,1401.21c4.28-.1,7.5-3.32,7.5-7.28l.05-32.37c0-4.46-2.44-7.17-8.11-7.2h-709.32c-5.67.03-8.11,2.74-8.11,7.2l.05,32.37c-.05,4.99,3.2,7.17,7.5,7.28h710.43,0Z"/>
  <path class="st0" d="M870.09,1677.48h3.48v3.57h-3.48v-3.57Z"/>
  <g>
    <path class="st1" d="M1006.2,2008.34c.05.06.1.1.13.14-.03-.04-.07-.08-.13-.14Z"/>
    <path class="st1" d="M1004.5,2006.49c-.12-.13-.23-.25-.33-.36.11.12.23.25.33.36Z"/>
    <polygon class="st1" points="620.15 1891 597.66 1986.53 641.52 1986.53 620.46 1891 620.15 1891"/>
    <path class="st1" d="M978.05,1880.54h-6.94v101.13h6.69c37.9.03,48.74-22.77,48.56-50.52-.18-25.76-16.93-50.74-48.31-50.61Z"/>
    <path class="st1" d="M1004,2005.94c-.09-.09-.16-.17-.2-.22.07.08.13.14.2.22Z"/>
    <path class="st1" d="M969.24,1785.56c24.75-47.73,23.12-76.52.96-108.67l62.85.1c4.31-.13,7.5-3.35,7.5-7.29l-.21-48.91c0-4.49-2.45-7.17-8.13-7.22-30.62-.1-19.2-39.74-44.41-42.79,2.94-4.57,10.1-12.17,7.07-18.24-11.62-6.41-19.88-16.74-36.73-26.95-12.49-7.17-21.87,1.39-32.66,3.24-5.34,1.54-9.14-.64-6.11-3.77,15.95-12.87,40.93-32.7,22.9-54.91,14.24,5.12,20.22,9.2,42,8.92,22.75.27,34.95-5.16,42.79-7.65,14.44-3.5-1.04,13.63-6.61,17.07-5.55,4.68-6.91,6.06-15.33,12.7,44.25,1.25,60.82-32.17,83.62-30.98,6.25.71-2.71,13.48-7.9,18.11-4.86,4.05-9.2,8.66-14.51,12.87,24.88,1.25,44.43-10.44,59.53-24.62,4.44-5.1,4.71-4.57,6.41-6.51,1.41-1.7,4.36-3.06,6.74-3.06s4.51,1.09,5.9,2.79c10.49,15.78,24.06,21.84,44.43,21.84,23.33,0,47.81-13.66,57.2-33.41l31.01.08c4.28-.1,7.47-3.35,7.47-7.29v-28.22c0-3.96-3.51-7.28-7.83-7.37l-811.06-.13c-4.29.1-7.57,3.32-7.57,7.28v28.22c0,3.96,3.2,7.2,6.67,7.29l31.98.18c9.4,19.75,33.88,33.41,57.21,33.41,20.35,0,33.94-6.06,44.42-21.84,1.46-1.76,3.63-2.77,5.91-2.76,2.37,0,5.32,1.35,6.73,3.03,1.71,1.95,1.97,1.41,6.43,6.54,15.1,14.16,34.64,25.84,59.52,24.59-5.32-4.18-9.66-8.82-14.53-12.87-5.17-4.63-14.15-17.41-7.9-18.09,22.81-1.22,39.38,32.19,83.63,30.96-8.4-6.64-9.77-8-15.34-12.7-5.56-3.45-21.04-20.54-6.6-17.07,7.82,2.48,20.04,7.92,42.79,7.65,21.78.27,27.76-3.8,41.98-8.92-18.03,22.22,6.95,42.05,22.92,54.91,3.05,3.14-.75,5.32-6.11,3.8-10.8-1.88-20.18-10.44-32.67-3.27-16.83,10.21-25.1,20.54-36.72,26.95-3.04,6.08,4.12,13.68,7.06,18.24-25.2,3.03-13.79,42.68-44.42,42.79-5.67.05-8.38,2.76-8.38,7.22l.06,48.91c0,3.96,3.2,7.2,7.5,7.29l62.85-.1c-22.15,32.15-23.79,60.95.97,108.67l-562.59.16c118.73,238.55,325.07,412.59,471.36,497.13,80.78,46.69,137.04,65.11,188.58,65.11s107.68-18.42,188.46-65.11c146.26-84.54,352.66-258.79,471.4-497.36l-562.49.05ZM535.5,2033.28h-14.82v-98.74c0-4.89.31-26.07.31-41.67h-.31l-38.64,105.06h-.19s-40-104.82-40-104.82h-.31c0,15.38.31,36.55.31,41.44v98.74h-14.82v-167.19h21.91l32.33,84.3h.31l32.17-84.3h21.76v167.19ZM653.88,2033.28l-6.85-31.1h-54.11l-7.48,31.1h-15.77l42.58-167.19h17.34l41.01,167.19h-16.72ZM907.08,1593.75c7.6,6.72,12.76,8.9,21.28,12.06,20.87,5.19,39.54-4.25,50.31-15.47l.19,22.5h0l-87.17.13v-14.38c-.1-1.09-2-22.3,15.38-4.84ZM870.13,1677.51h3.48v3.57h-3.48v-3.57ZM764.83,1612.86h0l.22-22.5c10.75,11.24,29.43,20.69,50.28,15.47,8.52-3.16,13.68-5.32,21.28-12.06,17.38-17.46,15.49,3.75,15.37,4.84v14.38l-87.16-.13ZM752.3,2033.98c-22.44.04-28.86-3.29-46.44-9.43l1.31-13.13c17.35,5.88,31.8,9.3,44.5,9.7,14.05.45,36.11-8.61,36.19-28.33.08-18.01-14.37-24.16-26.85-30.27h0s-24.71-11.54-24.71-11.54c-13.89-5.9-38.49-19.45-38.48-46.61.01-24.29,18.03-38.53,52.81-38.48,18.85.03,26.87,3.22,41.62,8.08l-.77,13.9c-16.67-6.46-26.56-8.59-39.96-8.61-17.5-.01-37.91,4.32-37.52,25.14.36,19.03,16.68,27.31,26.85,32.15l24.72,11.53c17.26,7.72,37.78,17.35,37.68,44.73-.09,22.9-19.34,41.09-50.95,41.17ZM830.93,1679.51h-16.85v-1.89h16.85v1.89ZM907.03,2033.31h-70.56v-167.21h69.44v15.65h-54.15v62.75h53.28v15.63h-53.28v57.52h55.26v15.65ZM929.34,1679.48h-16.81v-1.89h16.81v1.89ZM1026.08,2014.33l2.55,19.05-17.43-.08c-.52-11.67-1.45-21.1-7.46-27.65h0c-5.69-4.94-12.49-7.92-26.52-8.21h-6.11v35.87h-16.11v-167.22h21.93c38.2-.08,65.03,29.77,64.93,65.17-.1,36.57-14.77,52.59-36.96,59.22,14.03,4.23,18.11,10.21,21.18,23.84ZM1150.72,2033.26l-6.84-31.13h-54.11l-7.5,31.13h-15.76l42.58-167.22h17.35l40.98,167.22h-16.72ZM1249.16,1879.53h-35.62v153.74h-15.3v-153.74h-35.61v-13.45h86.53v13.45ZM1295.89,2033.28h-15.3v-167.18h15.3v167.18Z"/>
    <polygon class="st1" points="1116.98 1890.98 1094.52 1986.5 1138.36 1986.5 1138.36 1986.5 1117.28 1890.98 1116.98 1890.98"/>
  </g>
</svg>