<?xml version="1.0" encoding="UTF-8"?>
<svg id="Layer_1" xmlns="http://www.w3.org/2000/svg" version="1.1" viewBox="0 0 1358.08 194.22">
  <!-- Generator: Adobe Illustrator 29.8.3, SVG Export Plug-In . SVG Version: 2.1.1 Build 3)  -->
  <path d="M254.51,193.94h58.07v-110.39h-33.7c-14.24,0-23.83,6.03-33.7,13.97-10.68,9.31-49.31,42.74-49.31,42.74v-56.44h-34.24c-19.45,0-29.31,6.85-40,15.34C113.96,104.65,0,193.95,0,193.95h69.03l68.49-56.44v56.43h55.61l61.36-55.61v55.61h.02ZM381.35,193.94h93.96v-28.49h-76.98c-7.12,0-14.79-4.38-14.79-18.35v-1.92c0-12.33,6.3-17.53,14.52-17.53h77.25v-28.77h-95.88c-39.18,0-54.79,16.99-54.79,43.29v8.77c0,30.68,16.98,43.01,56.7,43.01h.01ZM591.19,193.94v-29.03h-44.92v-81.09h-58.35v110.4h103.28v-.28h-.01ZM704.05,156.97c0,5.47-2.19,8.77-8.77,8.77h-31.5c-5.48,0-9.04-1.65-9.04-5.75,0-4.38,2.19-6.85,9.04-6.85h40.27v3.84h0ZM762.13,156.97v-20.82c0-23.83-15.62-37.26-49.04-37.26h-104.1v27.39h83.55c8.5,0,11.51,2.74,11.51,9.31v1.1h-66.57c-27.94,0-37.8,11.78-37.8,27.12v3.01c-.24,6.11,2.04,12.06,6.3,16.44,8.22,7.67,23.83,10.13,44.92,10.13h57.8c37.8.55,53.42-7.94,53.42-36.43h.01ZM833.07,127.65h36.44v-28.77h-74.51c-12.06,0-19.72,6.31-19.72,16.99v78.08h58.35v-66.29h-.56ZM983.47,132.86c0,4.11-1.92,6.57-8.5,6.57h-41.36v-3.83c0-5.48,2.19-8.77,9.04-8.77h31.78c5.21,0,9.04,1.65,9.04,6.03h0ZM1038.53,130.67v-3.83c0-15.62-8.77-27.67-49.59-27.67h-59.99c-37.8,0-53.42,12.87-53.42,40.82v16.44c0,23.83,15.62,37.53,49.31,37.53h106.56v-27.67h-86.28c-8.5,0-11.51-2.46-11.51-9.04v-.82h66.84c23.56-.28,38.08-7.95,38.08-25.75h0ZM1204.81,193.95v-53.15c0-33.15-15.89-41.91-63-41.91h-92.32v95.05h58.35v-64.1h15.62c17.53,0,23.28,10.14,23.28,21.1v43.28h58.07v-.27h0Z"/>
  <path d="M1313.57,0c-29.59,0-72.05,8.77-118.07,25.48-40.8,14.93-79.92,34.12-116.7,57.25,35.27-13.1,72.51-20.14,110.13-20.82,52.04,0,89.85,20,34.79,90.41C1386.16,46.31,1381.51,0,1313.57,0h0Z"/>
</svg>