<?xml version="1.0" encoding="UTF-8"?>
<svg id="Layer_1" xmlns="http://www.w3.org/2000/svg" version="1.1" viewBox="0 0 80.88 62.83">
  <!-- Generator: Adobe Illustrator 29.8.3, SVG Export Plug-In . SVG Version: 2.1.1 Build 3)  -->
  <path d="M40.49,59.25c-7.37-.01-14.44-2.95-19.65-8.17-5.21-5.22-8.15-12.29-8.16-19.68v-2.35l23.25,1.46-10.06,6.94c-.07.05-.13.12-.17.19-.04.08-.06.16-.07.25,0,.14.06.27.15.37.1.1.23.15.37.15h41.27c-1.55,5.97-5.04,11.25-9.91,15.03-4.87,3.78-10.86,5.83-17.02,5.85M40.49,3.56c7.38,0,14.45,2.93,19.67,8.16,5.22,5.22,8.15,12.31,8.15,19.69.04.77.04,1.55,0,2.32l-23.25-1.46,10.09-6.94c.07-.05.12-.11.16-.18.04-.07.05-.15.05-.24,0-.07-.01-.14-.04-.2s-.06-.12-.11-.17c-.05-.05-.11-.09-.17-.11-.06-.03-.13-.04-.2-.04H13.56c1.56-5.96,5.05-11.23,9.93-15,4.87-3.77,10.85-5.82,17-5.83ZM80.37,34.51l-7.61-.47h-.91v-2.61c-.02-7.73-2.87-15.18-8.03-20.94C58.67,4.73,51.59,1.07,43.91.2c-7.67-.87-15.4,1.12-21.7,5.58-6.3,4.46-10.75,11.09-12.49,18.62H2.87c-.19,0-.37.04-.54.12-.17.08-.31.2-.43.35l-1.77,2.45c-.08.1-.13.23-.13.37,0,.08,0,.16.04.24.03.08.07.15.13.2.06.06.12.11.2.14.07.03.15.05.24.05l7.59.47h.94v2.61c.02,7.73,2.87,15.18,8.03,20.94,5.15,5.76,12.24,9.42,19.91,10.29,7.67.87,15.4-1.12,21.7-5.58,6.3-4.46,10.75-11.09,12.49-18.62h6.96c.17-.02.34-.07.48-.15.15-.09.28-.2.38-.34l1.77-2.45c.05-.13.05-.27,0-.39,0-.08-.02-.16-.05-.23-.03-.07-.07-.14-.13-.19-.06-.06-.12-.1-.19-.13-.07-.03-.15-.05-.23-.05"/>
</svg>