<?xml version="1.0" encoding="UTF-8"?>
<svg id="Layer_1" xmlns="http://www.w3.org/2000/svg" version="1.1" viewBox="0 0 341.7 344.1">
  <!-- Generator: Adobe Illustrator 29.8.3, SVG Export Plug-In . SVG Version: 2.1.1 Build 3)  -->
  <defs>
    <style>
      .st0 {
        fill: #010101;
      }

      .st1 {
        fill: #343841;
      }
    </style>
  </defs>
  <path class="st0" d="M174.8,168.8c-.5.1-1,.1-1.7.2V7.3c1.7-2,3.7-4.3,6.3-7.3,1.2,6,2.4,11,3.4,16.1,3,14.5,5.9,29,8.8,43.5,2.8,13.8,5.5,27.7,8.3,41.5,1.9,9.2,3.8,18.3,5.7,27.4.4,1.9,1.1,4.7,1.3,6.7,0,0-2.2,2.4-3.5,3.7l-25.8,25.8c-1.2,1.3-1.9,2.7-2.8,4.1h0Z"/>
  <path class="st0" d="M166.9,175.3c.5-.1,1-.1,1.7-.2v161.7c-1.7,2-3.7,4.3-6.3,7.3-1.2-6-2.3-11-3.4-16.1-3-14.5-5.9-29-8.8-43.5-2.8-13.8-5.5-27.7-8.3-41.5-1.9-9.2-3.8-18.3-5.7-27.4-.4-1.9-1.4-6.6-1.4-6.6h0c6.8-11.2,4.8-8.9,13.4-17.5,1.2-1.4,17.9-14.9,18.8-16.2h0Z"/>
  <path class="st1" d="M173,169s3.4-3,4.5-4.1l25.8-25.8c1.3-1.3,3.5-3.7,3.5-3.7,4.9,1.2,9.2,1.6,14.2,2.7,10.6,2.2,21.2,4.4,31.8,6.5,9.2,1.9,18.4,3.6,27.5,5.5,10.9,2.2,21.9,4.5,32.8,6.7,7.4,1.5,14.8,2.9,22.2,4.4,1.9.4,3.7.9,6.4,1.6-2.9,2.5-5.3,4.5-7.5,6.4h-156.5l-4.7-.2h0Z"/>
  <path class="st1" d="M168.6,175l-4.5,4.1-25.8,25.8c-1.3,1.3-3.5,1.7-3.5,3.7l-14.1-2.7c-10.6-2.2-21.2-4.4-31.8-6.5-9.2-1.9-18.4-3.6-27.5-5.5-10.9-2.2-21.9-4.5-32.8-6.7-7.4-1.5-14.8-2.9-22.2-4.4-1.9-.4-3.7-.9-6.4-1.6,2.9-2.5,5.3-4.5,7.5-6.4h156.5c.9.2,4.6.3,4.6.2h0Z"/>
  <path class="st0" d="M205.5,128.7c.4,1.9,1.3,6.7,1.3,6.7,0,0-2.2,2.4-3.5,3.7"/>
  <path class="st1" d="M138.3,205c-1.3,1.3-3.5,3.7-3.5,3.7l-14.1-2.7"/>
</svg>