<?xml version="1.0" encoding="UTF-8"?>
<svg id="Layer_1" xmlns="http://www.w3.org/2000/svg" version="1.1" viewBox="0 0 67 59.99">
  <!-- Generator: Adobe Illustrator 29.8.3, SVG Export Plug-In . SVG Version: 2.1.1 Build 3)  -->
  <defs>
    <style>
      .st0 {
        fill: #19191b;
      }
    </style>
  </defs>
  <path class="st0" d="M22.18.17c12.59-.44,25.18,0,37.77.81,1.32.05,2.65.18,3.96.38.74.11,1.42.5,1.88,1.1.3.73.46,1.51.49,2.29.29,3.77.38,7.57.66,11.37-.55.03-1.1.03-1.65,0-9.67-.52-19.38-.93-29.11-.93-5.02,0-10.05,0-15.07.2-.64.03-1.27.2-1.84.49-.57.29-1.08.7-1.48,1.19,3.81.67,7.6,1.39,11.41,2.09,12.59,2.38,25.21,4.7,37.8,7.05v7.2c-7.08-1.16-14.15-2.44-21.23-3.66L.09,21.82c0-2.67,0-5.34.17-8.01,0-2.12.17-4.23.52-6.32.27-1.5.97-2.88,2.02-3.97C4.83,1.82,7.38.87,10.02.84c4.04-.38,8.09-.52,12.16-.67ZM0,25.33c21.95,4.03,43.64,8.15,65.44,12.21.49.07.97.16,1.44.29v.15c0,3.6-.17,7.2-.32,10.79.09,2.23-.35,4.45-1.3,6.47-.66.97-1.51,1.79-2.51,2.4-1,.62-2.11,1.01-3.27,1.16-3.32.51-6.67.8-10.02.87-14.44.59-28.9.34-43.32-.73-1.16,0-2.31-.14-3.44-.41-.6-.17-1.12-.52-1.5-1.02-.28-.73-.44-1.51-.46-2.29-.32-4.18-.46-8.38-.69-12.59,7.43.46,14.87.76,22.32.9,7.16,0,14.44,0,21.54.2,1.59.16,3.18-.32,4.42-1.33,0-.2.43-.38.4-.67-3.23-.49-6.47-1.1-9.67-1.65L0,33.42v-8.09Z"/>
</svg>