<?xml version="1.0" encoding="UTF-8"?>
<svg id="Layer_1" xmlns="http://www.w3.org/2000/svg" version="1.1" viewBox="0 0 68.98 68.94">
  <!-- Generator: Adobe Illustrator 29.8.3, SVG Export Plug-In . SVG Version: 2.1.1 Build 3)  -->
  <defs>
    <style>
      .st0 {
        fill: #2bb34b;
      }

      .st1 {
        fill: #bebbba;
      }

      .st2 {
        fill: #31302f;
      }

      .st3 {
        fill: #252423;
      }

      .st4 {
        fill: #777575;
      }

      .st5 {
        fill: #676464;
      }

      .st6 {
        fill: #a19d9d;
      }

      .st7 {
        fill: #7a7978;
      }

      .st8 {
        fill: #373735;
      }

      .st9 {
        fill: #161515;
      }

      .st10 {
        fill: #ece7e7;
      }

      .st11 {
        fill: #d8d4d2;
      }

      .st12 {
        fill: #aeb0b2;
      }

      .st13 {
        fill: #bbb8b7;
      }

      .st14 {
        fill: #e5e5e4;
      }

      .st15 {
        fill: #c6c1c0;
      }

      .st16 {
        fill: #646261;
      }

      .st17 {
        fill: #c2bfbe;
      }

      .st18 {
        fill: #817f7f;
      }

      .st19 {
        fill: #403f3e;
      }

      .st20 {
        fill: #95a1a7;
      }

      .st21 {
        fill: #343333;
      }

      .st22 {
        fill: #404240;
      }

      .st23 {
        fill: #8b8888;
      }

      .st24 {
        fill: #b3b1b1;
      }

      .st25 {
        fill: #51504f;
      }

      .st26 {
        fill: #8d8a8a;
      }

      .st27 {
        fill: #959291;
      }
    </style>
  </defs>
  <path class="st21" d="M68.95,35.96c-.26,6.32-2.13,12.13-5.59,17.42-3.38,5.17-7.85,9.15-13.36,11.93-2.63,1.33-5.41,2.29-8.3,2.9-1.23.26-2.48.46-3.74.57-.54.05-1.08.08-1.61.13h-.87c-.19,0-.39-.05-.57.04h-.78s-.05-.04-.07-.04c-.25,0-.48,0-.73,0-.21,0-.43,0-.64,0-4.63-.25-9.04-1.36-13.21-3.38-3.44-1.67-6.53-3.86-9.24-6.56-3.9-3.87-6.71-8.43-8.45-13.65-.58-1.74-1.01-3.53-1.3-5.34-.2-1.26-.34-2.52-.4-3.8,0-.13.03-.27-.07-.38v-1.75c0-.11.03-.21.04-.32.02-.26.02-.53.04-.79.06-.84.11-1.69.21-2.52.16-1.46.44-2.91.8-4.33,1.52-5.97,4.42-11.17,8.7-15.59C14.23,5.89,19.56,2.77,25.75,1.13c1.48-.39,2.96-.68,4.47-.86.9-.11,1.81-.15,2.72-.24h.6c.18,0,.36.05.53-.04h.92c.17.09.36.03.53.04h.57c1.03.05,2.05.14,3.07.27,1.99.27,3.94.7,5.85,1.31,5.42,1.74,10.13,4.65,14.12,8.7,3.74,3.81,6.44,8.25,8.12,13.31.6,1.8,1.04,3.64,1.33,5.51.2,1.28.35,2.57.36,3.87v.61c0,.24,0,.46,0,.7,0,.03.03.06.04.09v.13s-.04.06-.04.1v.7c0,.2,0,.41,0,.61ZM.36,34.82c0,.31,0,.61,0,.92,0,.09-.02.19,0,.28.04.56.07,1.13.13,1.7.09,1.06.24,2.1.44,3.14.53,2.82,1.41,5.51,2.62,8.11,1.08,2.33,2.42,4.5,4,6.53,1.5,1.92,3.19,3.67,5.07,5.24,1.64,1.38,3.4,2.59,5.27,3.63,2.51,1.39,5.13,2.46,7.9,3.19,1.54.41,3.11.7,4.69.88.93.11,1.86.2,2.79.2,1.18,0,2.36-.03,3.55-.05.42,0,.85-.05,1.27-.09,1.01-.11,2.02-.27,3.03-.46,2.85-.55,5.58-1.45,8.19-2.71,3.86-1.85,7.26-4.33,10.19-7.46,1.27-1.36,2.43-2.81,3.47-4.36,2.05-3.04,3.55-6.34,4.54-9.89.36-1.3.65-2.62.85-3.95.15-.96.26-1.92.31-2.89.02-.41.03-.81.05-1.22,0-.34,0-.67.02-1,0-.34,0-.67-.02-1.01,0-.35-.03-.7-.04-1.05,0-.1,0-.2,0-.3-.04-.46-.08-.91-.13-1.37-.12-1.17-.3-2.32-.55-3.47-.74-3.47-1.98-6.75-3.75-9.83-1.61-2.8-3.56-5.35-5.89-7.6-2.41-2.32-5.09-4.24-8.06-5.79-4.42-2.32-9.14-3.56-14.12-3.82-1.4-.07-2.82-.05-4.22.06-1.48.11-2.93.32-4.39.61-2.93.59-5.73,1.59-8.41,2.93-3.45,1.73-6.52,3.99-9.2,6.77-3.16,3.27-5.6,7.02-7.26,11.26-.8,2.02-1.41,4.1-1.8,6.24-.16.91-.28,1.83-.39,2.74-.06.57-.07,1.17-.1,1.74,0,.39-.03.78-.04,1.18v.97Z"/>
  <path class="st23" d="M.06,32.93c0,.26-.02.53-.04.79,0,.11-.03.21-.04.32v-1.09s.05-.02.07-.02Z"/>
  <path class="st16" d="M68.99,34.43s-.04-.06-.04-.09v-.7s.03,0,.04,0v.78Z"/>
  <path class="st16" d="M68.95,35.35v-.7s.03-.06.04-.1v.78s-.03.02-.04.02Z"/>
  <path class="st25" d="M33.32,68.91c.25,0,.48,0,.73,0,.03,0,.05.03.07.04h-.78s-.02,0-.02-.03Z"/>
  <path class="st24" d="M33.32,68.91s0,.02.02.03h-.66v-.04c.21,0,.42,0,.64,0Z"/>
  <path class="st6" d="M33.55.04h-.6V0h.61s0,.04,0,.05Z"/>
  <path class="st24" d="M68.99,33.64s-.02,0-.04,0v-.61h.04v.62Z"/>
  <path class="st24" d="M68.95,35.35s.03,0,.04,0v.61h-.04c0-.19,0-.4,0-.6Z"/>
  <path class="st24" d="M36.09.04h-.57s0-.03,0-.04h.57s0,.03,0,.04Z"/>
  <path class="st25" d="M34.91,68.95c.19-.08.38-.04.57-.04,0,0,0,.02,0,.04h-.56Z"/>
  <path class="st25" d="M35.53,0s0,.03,0,.04c-.18,0-.36.05-.53-.04h.52Z"/>
  <path class="st25" d="M33.55.04s0-.03,0-.04h.53c-.18.09-.36.04-.54.04Z"/>
  <path class="st4" d="M35.48,68.95s0-.02,0-.04h.47s0,.03,0,.04h-.47Z"/>
  <path class="st13" d="M35.96,68.95s0-.03,0-.04h.39v.04h-.4Z"/>
  <path class="st20" d="M68.67,35.56c0,.41-.02.81-.05,1.22-.05.97-.16,1.93-.31,2.89-.2,1.33-.48,2.65-.85,3.95-.98,3.54-2.49,6.84-4.54,9.89-1.04,1.55-2.2,3-3.47,4.36-2.93,3.14-6.33,5.6-10.19,7.46-2.62,1.26-5.34,2.16-8.19,2.71-1,.19-2.01.36-3.03.46-.42.05-.84.08-1.27.09-1.18.03-2.36.05-3.55.05-.93,0-1.86-.1-2.79-.2-1.59-.18-3.15-.47-4.69-.88-2.77-.73-5.4-1.8-7.9-3.19-1.88-1.04-3.63-2.25-5.27-3.63-1.87-1.57-3.55-3.32-5.07-5.24-1.59-2.02-2.93-4.19-4-6.53-1.2-2.6-2.09-5.3-2.62-8.11-.19-1.04-.35-2.09-.44-3.14-.05-.56-.08-1.13-.13-1.7,0-.09,0-.19,0-.28.18.02.36.05.54.05.92,0,1.85-.03,2.77-.05.05.53.07,1.06.14,1.59.1.86.19,1.7.33,2.55.26,1.59.68,3.13,1.2,4.65,1.05,3.06,2.52,5.89,4.47,8.47,1.67,2.21,3.61,4.14,5.78,5.84,2.51,1.97,5.25,3.52,8.24,4.61,3.07,1.13,6.26,1.71,9.52,1.86,1.54.06,3.07,0,4.6-.17,1.11-.13,2.22-.31,3.32-.56,2.57-.57,5.01-1.46,7.35-2.66,3.14-1.61,5.9-3.72,8.32-6.28,1.59-1.68,2.98-3.51,4.16-5.5,1.69-2.86,2.87-5.91,3.57-9.16.27-1.26.46-2.53.55-3.83.04-.53.09-1.06.14-1.59h3.33Z"/>
  <path class="st14" d="M.39,32.68c.04-.58.04-1.17.1-1.74.11-.92.23-1.83.39-2.74.38-2.14.99-4.22,1.8-6.24,1.67-4.24,4.1-7.98,7.26-11.26,2.69-2.78,5.75-5.04,9.2-6.77,2.68-1.34,5.48-2.33,8.41-2.93,1.45-.29,2.92-.5,4.39-.61,1.4-.11,2.81-.14,4.22-.06,4.98.26,9.7,1.49,14.12,3.82,2.95,1.55,5.65,3.46,8.05,5.79,2.32,2.25,4.27,4.8,5.89,7.6,1.78,3.08,3.03,6.35,3.75,9.83.25,1.15.43,2.31.55,3.47.05.46.08.91.13,1.37,0,.1,0,.2,0,.3h-3.32c-.05-.4-.09-.79-.13-1.19-.09-.97-.23-1.92-.41-2.87-.55-2.82-1.5-5.5-2.81-8.05-1.9-3.73-4.49-6.92-7.71-9.6-2.61-2.16-5.47-3.89-8.63-5.1-3.32-1.28-6.77-1.92-10.32-2.04-1.67-.05-3.34.05-4.99.28-1.13.15-2.26.36-3.36.64-2.94.75-5.72,1.9-8.33,3.46-4.59,2.74-8.17,6.5-10.87,11.09-1.47,2.48-2.5,5.14-3.19,7.93-.34,1.37-.57,2.75-.72,4.15-.05.49-.1.98-.15,1.48H.39Z"/>
  <path class="st11" d="M.39,32.68h3.31c0,.22,0,.45-.03.67,0,.18-.03.37-.04.56-.23,0-.45,0-.67,0-.31,0-.62-.04-.93-.04-.11,0-.22.02-.34,0-.19-.03-.39-.05-.58-.05-.26,0-.5.03-.76.04,0-.38.03-.77.04-1.17Z"/>
  <path class="st11" d="M65.32,32.5h3.32c0,.35.03.7.04,1.05-.04,0-.07,0-.11,0-.22.05-.44.06-.67,0-.06-.02-.13,0-.19,0-.26.03-.5.07-.76.07-.4,0-.81-.03-1.21-.04h-.37c0-.36-.03-.73-.05-1.09Z"/>
  <path class="st12" d="M68.67,35.56h-3.31c0-.32,0-.64.02-.97.36,0,.74,0,1.1-.03.37-.03.77-.02,1.15.02.35.04.7-.02,1.06-.03,0,.34-.02.67-.02,1Z"/>
  <path class="st15" d="M68.69,34.56c-.36,0-.71.06-1.06.03-.38-.04-.77-.05-1.15-.02-.37.03-.74.02-1.1.03,0-.34,0-.67,0-1h.37c.4,0,.81.04,1.21.04.26,0,.5-.05.76-.07.06,0,.14-.02.19,0,.23.06.45.05.67,0,.04,0,.07,0,.11,0,0,.34,0,.67,0,1.01Z"/>
  <path class="st15" d="M.36,33.86c.26-.02.5-.04.76-.04.19,0,.39.02.58.05.12.02.23,0,.34,0,.31,0,.62.03.93.04.23,0,.45,0,.67,0v.92H.36v-.98Z"/>
  <path class="st12" d="M.36,34.82h3.28c0,.31.03.61.04.92-.92.02-1.85.04-2.77.05-.18,0-.36-.03-.54-.05,0-.31,0-.62,0-.92Z"/>
  <path class="st9" d="M3.67,35.74c0-.31-.03-.61-.04-.92v-.92c.02-.18.03-.37.04-.56,0-.22.02-.45.03-.67.05-.49.09-.98.15-1.48.14-1.4.37-2.78.72-4.15.69-2.79,1.72-5.45,3.19-7.93,2.71-4.59,6.28-8.34,10.87-11.09,2.61-1.56,5.39-2.72,8.33-3.46,1.11-.28,2.23-.48,3.36-.64,1.66-.23,3.32-.34,4.99-.28,3.55.12,7,.76,10.32,2.04,3.16,1.22,6.02,2.94,8.63,5.1,3.22,2.68,5.81,5.87,7.71,9.6,1.3,2.55,2.26,5.23,2.81,8.05.18.95.32,1.91.41,2.87.04.4.09.79.13,1.19.02.36.04.73.05,1.09,0,.34,0,.67,0,1,0,.32,0,.64-.02.97-.05.53-.09,1.06-.14,1.59-.09,1.29-.27,2.56-.55,3.83-.7,3.24-1.89,6.3-3.57,9.16-1.18,2-2.57,3.82-4.16,5.5-2.42,2.56-5.18,4.67-8.32,6.28-2.33,1.2-4.78,2.09-7.35,2.66-1.09.25-2.21.42-3.32.56-1.53.18-3.06.25-4.6.17-3.26-.15-6.44-.73-9.52-1.86-3-1.09-5.73-2.65-8.24-4.61-2.18-1.7-4.11-3.64-5.78-5.84-1.95-2.58-3.44-5.4-4.47-8.47-.52-1.52-.94-3.06-1.2-4.65-.15-.85-.23-1.7-.33-2.55-.05-.54-.08-1.07-.13-1.59ZM62.82,34.5c.06-15.55-12.61-28.25-28.15-28.33-15.57-.08-28.3,12.47-28.48,27.97-.18,15.73,12.54,28.65,28.32,28.65,15.73,0,28.37-12.8,28.32-28.29Z"/>
  <path class="st3" d="M24.84,25.66c-.36-.32-.7-.62-1.05-.91-2.4-2.01-4.95-3.8-7.72-5.3-.11-.05-.21-.13-.31-.21-.26-.23-.31-.49-.16-.8.05-.1.12-.2.2-.29,1.78-2.07,3.85-3.79,6.22-5.16.46-.26.94-.29,1.41-.02,1.56.9,3.1,1.83,4.55,2.91,1.35.99,2.62,2.06,3.84,3.22.46.45.97.84,1.57,1.09.38.16.77.25,1.19.25.02-.08-.04-.14-.07-.19-.46-.77-.97-1.49-1.5-2.21-1.26-1.65-2.68-3.15-4.22-4.55-.5-.45-.99-.9-1.49-1.36-.12-.11-.24-.24-.33-.38-.22-.35-.14-.71.2-.93.13-.08.28-.15.44-.19,1.18-.36,2.36-.61,3.57-.79,1.55-.23,3.1-.31,4.67-.25.36,0,.73.05,1.08.11.39.07.74.26,1.03.55,1.25,1.18,2.5,2.37,3.62,3.67,1.92,2.24,3.36,4.77,4.34,7.56.46,1.33.93,2.67,1.25,4.05.21.9.36,1.81.46,2.73.2,1.76.25,3.54.2,5.3-.03.85-.1,1.7-.19,2.55-.34,3.04-1.06,6.01-1.87,8.94-.09.33-.13.66-.03.99.1.36.3.53.67.55.2,0,.39,0,.59,0,.26,0,.41-.14.45-.4.03-.19.03-.39.04-.59,0-.2,0-.41,0-.61.02-.5.42-.85.91-.77.58.1,1.18.23,1.75.38,2.14.6,4.03,1.67,5.69,3.14.1.09.19.17.28.27.39.42.37.95-.05,1.33-2.02,1.88-4.38,3.11-7.09,3.65-.22.05-.45.09-.67.09-.5,0-.81-.29-.83-.78,0-.31,0-.63,0-.94,0-.47-.13-.59-.6-.59h-.37c-7.46,0-14.92,0-22.37,0-.45,0-.84.1-1.22.34-.77.47-1.57.92-2.35,1.39-.31.18-.64.26-1,.26-.88,0-1.77,0-2.64,0-.42,0-.7-.15-.91-.51-1.25-2.1-2.69-4.06-4.28-5.91-.11-.14-.23-.26-.33-.41-.18-.27-.25-.57-.17-.89.09-.44.44-.75.92-.81.19-.03.37-.04.57-.04,2.13,0,4.26,0,6.39,0,.4,0,.77.08,1.14.26,1.36.64,2.72,1.29,4.09,1.91.18.08.37.16.57.2.7.15,1.29-.41,1.18-1.11-.21-1.46-.58-2.88-1.18-4.23-1.16-2.62-3-4.62-5.42-6.12-1.68-1.04-3.49-1.76-5.39-2.28-1.05-.29-2.11-.5-3.17-.7-.48-.09-.86-.35-.98-.85-.05-.19-.05-.41,0-.61.32-1.99.84-3.93,1.65-5.78.32-.73.69-1.44,1.06-2.16.25-.48.8-.69,1.37-.56.99.25,1.98.54,2.95.87,1.7.57,3.34,1.27,4.91,2.09.53.27,1.07.54,1.66.67.37.08.75.12,1.12-.04.05,0,.09-.03.17-.07ZM42.79,50.49h2.49c-.02-.11-.03-.18-.05-.26.73-.05,1.46-.06,2.19,0,0,.04.02.07.04.1.21.25.42.5.65.73.15.15.29.26.31.48.03.12.11.16.22.15.05,0,.11,0,.17,0,.06.03.15.04.19.08.19.19.36.39.56.58.06.06.15.15.22.15.24,0,.46-.05.66-.21.21.02.38-.09.57-.17.24-.08.46-.17.7-.26.19-.09.38-.17.57-.26.21-.1.42-.2.63-.31.23-.14.46-.26.68-.4.26-.17.54-.36.8-.53.17-.13.35-.26.52-.38.24-.19.46-.38.7-.57.13-.14.26-.26.39-.4.2-.29.19-.55-.05-.77-.31-.29-.62-.57-.95-.83-.38-.29-.78-.54-1.18-.81-.35-.28-.75-.46-1.13-.67-.66-.4-1.36-.69-2.11-.88-.28-.14-.57-.25-.89-.25-.06,0-.13-.03-.19-.05-.36-.08-.74-.15-1.1-.24-.34-.05-.52.07-.58.4,0,.05,0,.1-.02.15,0,.27,0,.56,0,.83-.05.25-.06.51-.2.74-.12.07-.23.15-.35.23-.27,0-.55,0-.82,0-.41-.02-.69-.22-.86-.58-.06-.14-.1-.28-.15-.43.02-.25.03-.49.05-.75.06-.24.14-.48.2-.72.07-.3.14-.59.21-.89.06-.22.14-.45.2-.67.08-.35.17-.7.26-1.05.06-.29.13-.58.19-.87.1-.48.21-.97.31-1.45.03-.16.05-.32.09-.48.04-.2.07-.41.11-.61.03-.19.05-.38.09-.57.03-.22.05-.44.09-.66.03-.16.06-.32.09-.48.02-.13.03-.26.05-.39.08-.17.07-.34-.06-.48-.25-.26-.48-.52-.74-.77-.15-.15-.25-.31-.29-.5,0-.13,0-.26,0-.39,0-.07.04-.14.04-.21v-1.77c.13-.07.19,0,.26.06.11.13.21.26.32.38.15.17.29.35.45.5.05.05.15.1.23.08.09-.02.06-.13.06-.21-.02-.44-.04-.87-.05-1.3,0-.37-.03-.76-.04-1.13-.02-.31-.04-.61-.05-.92-.03-.67-.09-1.35-.19-2.01-.03-.16-.05-.31-.07-.46-.05-.31-.12-.62-.17-.93-.13-.52-.25-1.05-.37-1.57-.19-.6-.38-1.2-.57-1.8-.09-.27-.18-.55-.28-.82-.16-.43-.32-.86-.47-1.28,0-.03,0-.05-.02-.08-.26-.73-.56-1.44-.95-2.11-.04-.09-.07-.19-.12-.28-.45-.86-.97-1.68-1.53-2.47-1.14-1.59-2.46-3.03-3.87-4.37-.35-.33-.7-.66-1.06-.98-.36-.34-.79-.54-1.3-.51-.32-.03-.64-.05-.96-.07-.27,0-.56.02-.83.02-.26,0-.5,0-.76,0-.27,0-.55.02-.82.04-.27.02-.55.04-.83.06-.35.05-.7.08-1.05.13-.32.05-.64.12-.97.17-.35.07-.7.15-1.05.22-.29.07-.58.15-.87.22-.23.05-.46.12-.69.18-.02,0-.03.03-.05.05-.16.02-.28.11-.37.24-.07.1-.08.2,0,.3.1.14.18.28.3.4.34.34.68.67,1.04,1,.47.45.96.88,1.43,1.35.5.49.99.99,1.46,1.53.37.43.77.82,1.12,1.27.38.5.77.99,1.14,1.5.33.45.68.86,1.08,1.25.32.31.64.63.95.96.26.26.49.55.75.82.05.05.13.1.19.14.05.03.1,0,.1-.06.24.48.47.97.7,1.45.46.98.77,2.01,1.14,3.02.04.09.05.19.08.29,0,.03-.02.05-.03.07-.22-.13-.41-.26-.55-.47-.05-.09-.13-.17-.21-.26-.29-.31-.59-.62-.88-.93-.04-.05-.09-.08-.12-.13-.07-.19-.23-.31-.36-.45-.26-.26-.52-.53-.77-.8-.37-.41-.73-.83-1.1-1.23-.37-.4-.76-.78-1.13-1.18-.15-.15-.32-.28-.38-.49,0-.02-.03-.04-.04-.05-.25-.15-.49-.31-.73-.46-.24-.2-.48-.4-.71-.61-.33-.3-.66-.62-.98-.93-.07-.07-.18-.12-.27-.17-.03-.03-.05-.05-.07-.08-.27-.25-.55-.5-.83-.74-.32-.26-.66-.5-.98-.75-.42-.31-.84-.63-1.26-.94-.39-.27-.77-.55-1.17-.81,0,0-.03,0-.05,0-.33-.22-.66-.43-.99-.65-.27-.16-.55-.34-.82-.5-.31-.17-.61-.35-.92-.53-.15-.07-.3-.16-.46-.22-.08-.03-.19,0-.29.02-.07.02-.16,0-.23.05-.24.14-.46.28-.69.42-.25.15-.5.31-.75.47-.3.21-.61.42-.91.63-.28.22-.56.44-.85.66-.15.12-.28.23-.43.35-.2.18-.4.36-.61.54-.15.13-.29.26-.43.39-.12.11-.24.22-.35.33-.12.12-.12.14,0,.26.12.12.22.25.26.42-.15.17-.3.34-.43.52-.1.14-.08.23.05.34.04.03.07.05.11.07.66.39,1.31.78,1.97,1.18.26.16.52.34.78.51-.05.18,0,.33.12.46.13.14.25.28.38.42.05.05.12.08.16.14.11.11.25.21.32.34.07.13.15.24.26.3.25.14.4.32.51.57.05.13.15.23.28.28.06.03.15.09.16.15.08.22.24.36.43.47.11.06.16.15.2.27.02.05.05.12.09.16.22.19.44.38.66.56.26.22.51.43.77.64.24.2.47.4.71.6.02.03.03.05.05.09-.17.25-.16.25.05.46.3.32.58.64.88.97.42.46.85.94,1.27,1.4.33.36.66.72.98,1.08.29.31.59.62.88.93.1.11.18.22.22.37-.82.09-1.57-.12-2.28-.52-.05-.11-.1-.23-.17-.33-.21-.26-.44-.51-.66-.76-.36-.39-.71-.78-1.08-1.17-.4-.42-.81-.84-1.21-1.26-.17-.18-.32-.37-.48-.56-.16-.18-.34-.34-.6-.36-.21-.08-.43-.16-.64-.24-.08-.03-.17-.05-.26-.08-.05-.04-.09-.07-.14-.1-.22-.11-.44-.22-.66-.33-.3-.15-.61-.3-.91-.45-.26-.12-.52-.24-.78-.36-.28-.13-.56-.26-.86-.37-.05-.02-.11-.03-.16-.04-.24-.09-.46-.17-.7-.26-.25-.1-.49-.19-.74-.29-.24-.08-.47-.15-.71-.24-.45-.14-.9-.28-1.35-.42-.26-.07-.51-.14-.77-.21-.18-.05-.36-.1-.55-.15-.25-.05-.47-.02-.67.15-.09.12-.18.24-.28.36-.07.14-.15.26-.21.4-.06.13-.13.26-.2.39-.07.16-.15.32-.23.48-.13.1-.2.23-.21.39-.13.23-.15.46.04.67.13.14.26.27.41.39.08.06.14.13.13.23-.14.36-.27.74-.41,1.1-.45,1.17-.81,2.35-1.06,3.57-.04.16-.05.33,0,.49.03,0,.05.02.07.03.67.16,1.35.31,2.01.48,2.22.57,4.35,1.4,6.34,2.56.55.32,1.08.65,1.58,1.07.06.12.11.25.19.35.19.23.4.44.6.66.17.18.35.37.52.57.41.46.82.9,1.23,1.36.26.29.55.57.81.86.21.23.4.46.6.68.07.08.16.15.28.14.06.09.13.17.18.27.98,1.8,1.58,3.7,1.72,5.74.04.47-.09.89-.36,1.28-.43.61-1.06.84-1.76.93h-.09c-.35-.1-.69-.2-1.05-.3,0-.03,0-.06-.03-.08-.41-.47-.82-.94-1.23-1.41-.07-.08-.13-.18-.21-.27-.04-.05-.09-.09-.15-.12-.26-.13-.52-.26-.78-.37-.05-.03-.13-.04-.18-.05-.41-.24-.82-.46-1.27-.61-.11-.06-.22-.15-.34-.19-.23-.08-.46-.17-.71-.08-.24,0-.46,0-.7,0h-4.87c-.19,0-.37,0-.57,0-.19,0-.38,0-.57.02-.13.03-.26.05-.37.08-.09,0-.17.03-.2.14-.1.02-.15.08-.17.17-.14.08-.15.1-.08.21.05.09.14.16.21.25.22.26.44.52.66.77.12.13.25.24.26.43.17.24.35.48.53.72.89,1.13,1.79,2.25,2.57,3.44.24.36.47.74.69,1.11.14.23.33.35.59.34.09,0,.19,0,.28,0,.23,0,.46,0,.68.02.03,0,.05,0,.07,0,.12.19.28.29.52.26.06,0,.13,0,.19,0,.05,0,.11.04.16.04.22,0,.45-.03.67-.05.04.02.07.05.11.05.19-.04.4-.04.54-.21.57-.33,1.14-.67,1.71-.99.37-.22.74-.45,1.11-.67.25-.07.5-.12.77-.12.13,0,.26-.02.38-.03h2.11v-.26c.26,0,.54-.03.8-.03,2.43,0,4.86,0,7.29,0,.26,0,.52.03.78.05.08.24.1.26.34.26h1.15c.25,0,.5,0,.75,0h4.25c.4-.03.74-.03,1.08-.03ZM16.06,18.42c-.33.15-.36.45-.06.65.33.22.68.38,1.02.57.23.14.46.27.68.41.07.05.15.08.24.12.07-.13,0-.18-.05-.25-.25-.26-.49-.53-.75-.78-.26-.26-.52-.53-.78-.78-.15-.16-.21-.15-.3.06Z"/>
  <path class="st0" d="M35.31,50.23c-.26-.02-.52-.05-.78-.05-2.43,0-4.86,0-7.29,0-.26,0-.54.02-.8.03-.32,0-.64,0-.97,0-.57-.02-1.13-.03-1.7-.05-.05,0-.1.02-.15.04-.24,0-.45.1-.66.19-.37.21-.74.42-1.11.63-.55.31-1.09.63-1.64.94-.19.06-.39.13-.58.18-.11,0-.22,0-.33,0-.19,0-.39.02-.58.03h-.57s-.05,0-.07,0c-.23,0-.46,0-.68-.02-.09,0-.19,0-.28,0-.26,0-.46-.11-.59-.34-.23-.37-.46-.75-.69-1.11-.79-1.2-1.69-2.32-2.57-3.44-.18-.24-.36-.48-.53-.72-.04-.14.08-.2.15-.28.11,0,.22-.02.34-.03h5.96c.27.03.56.05.83.08.31.1.61.2.92.3.39.13.79.26,1.18.39.32.11.64.21.96.32.02,0,.03.02.05.03.31.1.62.21.92.31.35.1.69.2,1.05.3.03,0,.05,0,.09,0,.7-.09,1.33-.32,1.76-.93.26-.38.39-.8.36-1.28-.15-2.04-.74-3.96-1.72-5.74-.05-.09-.12-.18-.18-.27-.07-.14-.13-.27-.21-.4-.82-1.32-1.86-2.46-3.04-3.47-.31-.26-.66-.48-.98-.73-.48-.41-1.02-.75-1.58-1.07-2-1.16-4.12-1.99-6.34-2.56-.67-.17-1.35-.32-2.01-.48-.02,0-.05,0-.07-.03-.05-.16-.03-.33,0-.49.25-1.22.61-2.42,1.06-3.57.14-.36.27-.74.41-1.1.08-.19.16-.38.25-.57.06-.15.13-.29.19-.44.05-.1.09-.2.13-.29.1-.14.19-.28.29-.42.16,0,.32.03.48.04.27.08.55.16.83.25.22.07.44.15.66.22.21.06.41.14.62.2.32.12.64.24.96.36.18.07.36.15.54.23.4.16.81.32,1.21.47.26.12.53.23.79.35.26.12.52.24.77.36.31.15.62.29.93.44.32.15.65.32.97.47.29.15.58.29.87.44.36.2.73.41,1.09.61.35.2.7.41,1.05.61.35.21.7.41,1.05.62.32.18.65.37.97.56.7.4,1.46.61,2.28.52.16-.02.32-.04.48-.05.17-.07.35-.14.53-.21.33-.06.4-.21.24-.48-.06-.11-.15-.22-.23-.32-.46-.55-.93-1.1-1.4-1.64-.71-.8-1.41-1.61-2.16-2.38-.67-.69-1.39-1.33-2.1-1.98-.34-.31-.71-.58-1.07-.87-.36-.3-.71-.62-1.08-.9-.43-.33-.88-.64-1.32-.96-.02,0-.03-.03-.05-.04-.19-.14-.37-.26-.56-.4-.22-.15-.44-.3-.66-.45-.26-.17-.52-.35-.78-.51-.66-.39-1.31-.78-1.97-1.18-.04-.02-.07-.05-.11-.07-.14-.1-.16-.2-.05-.34.14-.18.28-.35.43-.52.15-.15.29-.29.45-.44.17-.16.35-.33.52-.49.16-.13.32-.26.48-.39.22-.17.44-.36.66-.53.24-.17.47-.35.71-.51.34-.22.67-.44,1.01-.66.04-.02.07-.04.11-.06.24-.15.47-.17.71,0,.04.03.08.03.12.05.07.05.15.11.23.16.81.51,1.62,1.03,2.44,1.54.11.07.23.13.34.19.26.18.5.36.76.55.27.19.55.37.82.56.46.35.93.7,1.39,1.05.13.11.25.23.37.33.36.28.72.57,1.08.85.5.46,1,.94,1.5,1.4.11.1.22.18.33.27.77.82,1.55,1.64,2.31,2.46.27.29.54.59.8.89.38.46.77.94,1.14,1.4.26.33.55.64.92.86.08.05.18.07.28.11h0s.04.02.05.03c.15.05.29.09.44.14.22.04.44.07.66.11.16,0,.33,0,.5,0,.03,0,.05,0,.08,0,.15-.03.16-.05.13-.2,0-.03-.02-.05-.03-.08-.08-.26-.16-.53-.24-.79-.03-.1-.05-.2-.08-.29-.36-1.01-.68-2.04-1.14-3.02-.23-.48-.46-.97-.7-1.45-.04-.09-.05-.18-.11-.26-.29-.51-.59-1.03-.89-1.54-.05-.1-.09-.22-.15-.31-1.11-1.82-2.41-3.52-3.87-5.08-.69-.74-1.42-1.44-2.18-2.11-.26-.23-.52-.47-.77-.7-.12-.11-.2-.24-.15-.41.16-.06.32-.13.48-.19.08-.03.16-.05.25-.08.34-.06.67-.12,1.01-.18.34-.05.67-.09,1-.14.32-.03.64-.05.96-.09.41,0,.82-.03,1.23-.04.22,0,.44,0,.66-.02.02,0,.04,0,.05,0,.18,0,.37.02.56.03.62.18,1.14.53,1.62.95.15.14.32.25.48.37.09.09.18.18.28.27,1.26,1.13,2.43,2.33,3.44,3.69.35.46.69.91,1.04,1.38.03.05.05.11.07.15.39.67.79,1.32,1.18,1.99.24.42.45.85.67,1.27.07.18.14.36.22.55.22.52.44,1.04.67,1.56.11.36.22.71.34,1.06.08.25.17.49.26.74.13.51.25,1.02.37,1.52.04.2.08.39.12.59.11.56.21,1.12.31,1.68.05.31.08.61.13.92.04.44.07.87.11,1.31,0,.03,0,.05,0,.08.03.57.06,1.16.07,1.73,0,.6,0,1.2,0,1.8,0,.13,0,.26,0,.39,0,.24-.02.47-.04.7,0,.15,0,.32-.02.47,0,.15-.02.29-.04.44-.03.26-.05.52-.08.78-.02.19-.04.38-.05.57-.03.22-.05.44-.07.66-.03.17-.05.35-.08.53-.07.46-.14.93-.21,1.39-.05.27-.1.55-.15.82,0,.02,0,.04-.02.05,0,.03,0,.06,0,.09-.08.37-.16.76-.24,1.13-.05.24-.1.46-.15.7-.05.22-.1.43-.15.65-.08.28-.16.57-.25.85-.06.25-.14.49-.2.73-.04.24-.07.47-.11.71,0,.15,0,.32.05.47.2.83.98,1.25,1.57,1.22h.78c.2,0,.4.02.6,0,.09,0,.18-.04.27-.05.13-.08.26-.16.39-.26.33-.23.39-.56.37-.92.09-.15.22-.18.37-.15.35.09.7.18,1.05.27.45.17.89.34,1.35.51.3.15.6.32.9.47.23.12.46.25.68.37.02.02.05.04.06.05.34.26.67.51,1.01.77.11.08.21.16.19.32-.17.15-.36.31-.53.47-.22.16-.44.32-.66.48-.23.15-.46.3-.69.45-.2.12-.41.23-.61.35-.2.1-.41.21-.61.31-.2.08-.41.17-.61.26-.17.05-.35.12-.53.17-.32.09-.65.17-.97.26-.05,0-.12,0-.17,0-.12.02-.19-.02-.22-.15,0-.08,0-.15,0-.24,0-.58-.45-1.06-.99-1.08-.73-.05-1.46-.04-2.19,0h-1.01c-.15-.02-.29-.04-.44-.04h-6.12c-.07,0-.15,0-.22,0-.26,0-.5.02-.76.04-.53.11-.99.11-1.46.11ZM40.47,44.98c.09-.05.17-.09.26-.14.14-.08.26-.17.4-.26.1-.09.2-.18.3-.27.09-.05.19-.1.27-.17.46-.46.83-.99,1.08-1.6.31-.76.37-1.55.27-2.36-.15-1.09-.61-2.03-1.42-2.78-1.07-1-2.34-1.4-3.8-1.22-1,.13-1.9.52-2.62,1.23-1.31,1.28-1.72,2.83-1.32,4.59.09.43.26.83.53,1.18.05.07.09.15.15.22.06.09.14.18.2.26.06.07.12.15.18.22.06.08.13.17.2.26.39.43.88.72,1.4.95.81.36,1.68.49,2.56.36.38-.05.76-.15,1.09-.34.07-.05.16-.08.26-.13Z"/>
  <path class="st11" d="M41.73,17.15c-.35-.46-.7-.91-1.04-1.38-1.01-1.36-2.19-2.56-3.44-3.69-.1-.09-.19-.18-.28-.27-.03-.09-.05-.2-.09-.28-.06-.11-.16-.2-.25-.3-.31-.33-.61-.66-.93-.98-.12-.12-.17-.25-.17-.4.32.03.64.05.96.07-.03.05-.05.1-.07.15.08.11.16.22.26.32.38.42.77.83,1.16,1.25.3.32.6.63.9.95.18.19.36.39.55.59.12.14.24.27.36.41.36.4.71.8,1.08,1.2.36.39.75.77,1.12,1.17.02.02.03.03.05.05.31.36.62.71.94,1.06.2.22.41.44.61.66.15.15.28.31.43.46.09.1.16.21.26.29.07.06.15.14.26.05.39.67.69,1.39.95,2.11,0,.03,0,.05.02.08-.09,0-.19.03-.26-.06-.07-.08-.15-.15-.23-.24-.25-.28-.48-.58-.74-.86-.35-.38-.72-.74-1.07-1.12-.31-.34-.6-.68-.89-1.04-.14-.14-.26-.23-.43-.26Z"/>
  <path class="st14" d="M44.37,18.54c-.11.08-.19,0-.26-.05-.09-.09-.17-.2-.26-.29-.14-.15-.28-.31-.43-.46-.2-.22-.41-.44-.61-.66-.32-.36-.62-.71-.94-1.06-.02-.02-.03-.04-.05-.05-.37-.39-.76-.77-1.12-1.17-.36-.39-.72-.8-1.08-1.2-.12-.14-.24-.27-.36-.41-.18-.2-.36-.4-.55-.59-.3-.32-.6-.63-.9-.95-.39-.41-.77-.83-1.16-1.25-.09-.1-.17-.21-.26-.32.03-.05.05-.1.07-.15.51-.03.94.17,1.3.51.36.32.71.65,1.06.98,1.41,1.35,2.73,2.79,3.87,4.37.57.78,1.08,1.6,1.53,2.47.06.08.1.18.14.27Z"/>
  <path class="st22" d="M28.67,11.21c-.05.17.03.3.15.41.26.24.51.47.77.7.76.67,1.49,1.37,2.18,2.11,1.47,1.56,2.76,3.25,3.87,5.08.06.1.1.21.15.31-.04,0-.07,0-.1-.04-.15-.14-.29-.28-.43-.43-.44-.46-.87-.93-1.31-1.4-.24-.26-.47-.53-.71-.79-.36-.4-.71-.8-1.08-1.2-.32-.35-.64-.67-.97-1.01-.36-.37-.71-.75-1.08-1.12-.02-.02-.04-.05-.05-.06-.28-.34-.56-.69-.86-1.01-.39-.43-.8-.84-1.21-1.26-.16-.16-.31-.35-.41-.56.02-.02.03-.04.05-.05.23-.06.46-.12.69-.18.13.19.24.36.35.52Z"/>
  <path class="st2" d="M27.61,10.94c.1.21.25.39.41.56.41.42.82.83,1.21,1.26.3.33.57.67.86,1.01.02.02.04.05.05.06.36.37.72.75,1.08,1.12.32.34.65.67.97,1.01.36.39.71.8,1.08,1.2.24.26.46.54.71.79.44.46.87.94,1.31,1.4.14.15.28.28.43.43.03.02.06.03.1.04.3.51.6,1.02.89,1.54.05.08.07.17.11.26,0,.06-.05.1-.1.06-.07-.04-.15-.08-.19-.14-.26-.27-.49-.56-.75-.82-.31-.33-.63-.65-.95-.96-.4-.38-.77-.79-1.08-1.25-.36-.51-.76-1.01-1.14-1.5-.35-.45-.76-.85-1.12-1.27-.46-.54-.96-1.04-1.46-1.53-.46-.46-.96-.89-1.43-1.35-.35-.33-.7-.66-1.04-1-.12-.12-.2-.26-.3-.4-.07-.1-.06-.21,0-.3.06-.14.18-.23.35-.25Z"/>
  <path class="st19" d="M30.53,30.62c-.17.07-.35.14-.53.21-.03-.06-.05-.14-.1-.19-.21-.26-.42-.52-.64-.77-.31-.35-.65-.67-.96-1.01-.37-.42-.72-.86-1.1-1.27-.46-.5-.94-.99-1.39-1.51-.15-.18-.35-.33-.58-.4-.02-.03-.03-.05-.05-.09-.04-.08-.05-.18-.11-.26-.09-.13-.19-.24-.29-.35-.34-.38-.68-.77-1.03-1.16-.17-.19-.34-.38-.52-.56-.38-.38-.75-.77-1.09-1.18-.22-.26-.46-.51-.67-.77-.05-.06-.06-.15-.09-.24.45.32.89.62,1.32.96.37.29.73.6,1.08.9,0,.17.08.3.2.42.36.38.71.77,1.07,1.16.36.4.71.8,1.08,1.2.33.36.67.73,1,1.09.35.37.69.75,1.03,1.12.33.36.66.72.98,1.08.38.41.77.82,1.14,1.23.12.1.25.2.25.37Z"/>
  <path class="st10" d="M54.03,48.9c.02-.15-.08-.24-.19-.32-.34-.26-.67-.51-1.01-.77-.03-.02-.05-.04-.06-.05,0-.15-.07-.26-.17-.36-.27-.3-.54-.6-.81-.9-.36-.39-.72-.79-1.09-1.18-.08-.09-.13-.17-.1-.29.74.2,1.44.49,2.11.88.03.17.16.26.26.39.43.57.94,1.07,1.42,1.59.36.38.72.76,1.08,1.13.1.1.16.22.16.36-.24.19-.46.38-.7.57-.18-.19-.36-.39-.55-.58-.15-.13-.3-.26-.34-.47Z"/>
  <path class="st7" d="M38.28,27.45c-.22-.04-.44-.07-.66-.11-.03-.05-.05-.11-.08-.15-.16-.2-.34-.4-.5-.6-.3-.35-.6-.7-.92-1.05-.25-.26-.51-.5-.76-.77-.13-.14-.22-.3-.34-.45-.06-.08-.13-.15-.2-.22-.1-.09-.21-.17-.3-.27-.22-.25-.42-.5-.64-.75-.23-.26-.46-.5-.7-.75-.15-.16-.29-.32-.44-.48-.31-.35-.61-.7-.92-1.05-.25-.27-.5-.53-.75-.79-.16-.18-.31-.38-.48-.57-.29-.32-.6-.63-.9-.95-.37-.4-.74-.8-1.11-1.2-.16-.17-.32-.36-.48-.53-.16-.17-.33-.35-.51-.5-.16-.15-.26-.3-.29-.52.42.31.84.63,1.26.94-.02.13.05.2.13.28.42.42.83.84,1.21,1.28.41.48.86.93,1.29,1.39.2.21.4.42.59.64.42.49.84.98,1.3,1.43.05.04.08.08.11.14.15.25.34.46.55.65.27.27.56.54.82.82.29.31.56.65.85.97.33.36.67.73,1,1.09.48.52.97,1.03,1.45,1.54.15.18.28.36.42.52Z"/>
  <path class="st16" d="M38.28,27.45c-.14-.16-.26-.34-.42-.5-.48-.52-.97-1.03-1.45-1.54-.34-.36-.67-.72-1-1.09-.28-.32-.56-.65-.85-.97-.26-.28-.54-.56-.82-.82-.2-.2-.39-.41-.55-.65-.03-.05-.06-.09-.11-.14-.46-.45-.88-.94-1.3-1.43-.19-.22-.39-.43-.59-.64-.43-.46-.88-.91-1.29-1.39-.38-.45-.79-.88-1.21-1.29-.08-.08-.15-.15-.13-.28.33.25.67.49.98.75.28.24.56.49.83.74.03.03.05.05.07.08,0,.04,0,.07.03.1.3.33.61.67.91.99.05.05.11.08.14.14.24.37.54.68.84.99l1.22,1.22c.06.06.11.15.17.23.07.09.13.19.21.27.32.35.66.67.98,1.03.36.4.69.82,1.06,1.21.4.44.83.86,1.24,1.29.23.24.45.47.67.72.16.17.31.36.46.55.13.15.26.28.4.43-.15,0-.31,0-.48,0Z"/>
  <path class="st23" d="M27.3,15.78c.03.21.15.37.29.52.17.16.35.33.51.5.16.17.32.36.48.53.37.4.74.8,1.11,1.2.3.32.6.63.9.95.16.18.31.38.48.57.25.26.5.53.75.79.31.35.61.69.92,1.05.15.16.29.33.44.48.23.25.47.49.7.75.22.25.42.5.64.75.09.1.2.18.3.27.07.07.15.14.2.22.12.15.21.31.34.45.25.26.51.5.76.77.32.34.62.69.92,1.05.17.2.34.4.5.6.04.05.05.1.08.15-.15-.05-.29-.09-.44-.14-.02,0-.04-.03-.05-.04h0c.02-.11-.05-.18-.13-.26-.27-.29-.55-.57-.82-.87-.15-.16-.29-.32-.44-.48-.36-.4-.72-.81-1.08-1.21-.17-.19-.37-.36-.55-.56-.28-.31-.55-.64-.83-.95-.25-.27-.5-.53-.75-.79-.17-.19-.34-.4-.51-.59-.09-.1-.16-.26-.35-.24-.07-.13-.13-.26-.23-.37-.36-.4-.73-.79-1.09-1.18-.08-.09-.15-.19-.25-.28-.12-.13-.25-.26-.38-.36-.08-.06-.15-.13-.2-.22-.1-.16-.2-.33-.35-.45-.27-.22-.48-.48-.7-.75-.07-.09-.18-.16-.28-.24-.05-.05-.12-.09-.15-.15-.16-.2-.28-.45-.48-.61-.15-.12-.24-.26-.33-.4-.11-.19-.29-.3-.46-.42-.09-.06-.17-.12-.2-.24-.04-.13-.12-.23-.24-.3-.1-.05-.18-.15-.26-.22-.05-.05,0-.08.04-.09h.05c.37.26.77.54,1.15.81Z"/>
  <path class="st17" d="M41.73,17.15c.17.04.29.14.4.27.28.36.58.7.89,1.04.35.38.72.74,1.07,1.12.26.27.49.57.74.86.07.08.15.15.23.24.07.08.17.05.26.06.15.43.32.85.47,1.28.1.27.19.55.28.82-.11.02-.17-.05-.25-.11-.4-.44-.81-.87-1.21-1.3-.16-.17-.3-.36-.46-.55-.14-.15-.27-.3-.5-.31-.23-.43-.44-.86-.67-1.27-.38-.67-.78-1.32-1.18-1.99-.02-.06-.04-.12-.06-.16Z"/>
  <path class="st10" d="M25.41,16.45c-.12-.06-.23-.12-.34-.19-.81-.51-1.62-1.03-2.44-1.54-.08-.05-.15-.11-.23-.16-.05-.19-.17-.35-.3-.49-.15-.16-.26-.34-.4-.51.23-.15.46-.29.69-.42.06-.04.15-.04.23-.05,0,.04.02.07.04.1.12.15.24.31.36.46.22.25.46.48.68.73.39.43.77.86,1.16,1.28.21.24.44.46.65.7,0,0,0,.04.03.07-.05,0-.08,0-.13.02Z"/>
  <path class="st25" d="M38.78,27.44c-.14-.14-.27-.28-.4-.43-.15-.18-.3-.36-.46-.55-.22-.25-.45-.48-.67-.72-.41-.43-.84-.85-1.24-1.29-.36-.39-.69-.82-1.06-1.21-.32-.35-.66-.68-.98-1.03-.08-.08-.14-.18-.21-.27-.05-.07-.1-.15-.17-.23-.4-.41-.81-.81-1.22-1.22-.31-.31-.61-.62-.84-.99-.04-.05-.09-.08-.14-.14-.31-.33-.61-.66-.91-.99-.02-.03-.02-.06-.03-.1.09.05.19.1.27.17.33.31.65.63.98.93.23.21.47.41.71.61,0,.18.13.28.25.39.07.06.15.12.21.19.36.46.73.88,1.13,1.29.21.21.43.42.63.64.12.12.23.25.33.37.13.16.26.33.46.43.05.03.1.08.14.14.38.57.84,1.08,1.32,1.56.29.3.58.58.88.88.05.05.09.11.14.16.11.15.22.29.34.43.15.17.3.34.46.5.08.08.14.2.27.18,0,.03.03.05.03.08.04.16.03.17-.13.2-.04,0-.06,0-.09,0Z"/>
  <path class="st6" d="M26.1,14.96c-.05.02-.08.05-.04.09.08.08.16.16.26.22.12.07.21.16.24.3.03.12.12.17.2.24.17.12.36.23.46.42.09.15.18.28.33.4.19.16.32.4.48.61.05.05.11.1.16.15.09.08.2.15.28.24.22.26.43.53.7.75.15.12.25.29.35.45.05.09.12.16.2.22.14.1.26.23.38.36.09.09.16.19.25.28.36.39.74.78,1.09,1.18.09.11.15.25.23.37v.24c-.11-.09-.23-.17-.33-.27-.5-.46-1-.94-1.5-1.4.1-.11.02-.18-.05-.26-.29-.29-.57-.57-.87-.87-.06-.06-.11-.14-.15-.2-.1-.13-.18-.26-.29-.37-.26-.26-.54-.51-.77-.79-.36-.44-.74-.88-1.15-1.28-.11-.11-.2-.23-.31-.34-.24-.26-.41-.57-.72-.78-.1-.06-.18-.16-.26-.26-.08-.09-.16-.19-.15-.33.32.22.66.43.98.65Z"/>
  <path class="st24" d="M43.66,20.56c.23,0,.36.16.5.31.16.17.3.36.46.55.4.44.81.87,1.21,1.3.06.07.14.14.25.11.19.6.38,1.2.57,1.8-.13,0-.23-.05-.31-.14-.2-.21-.39-.43-.59-.64-.13-.14-.25-.28-.37-.43-.2-.22-.39-.45-.59-.67-.06-.08-.15-.11-.25-.1-.22-.52-.45-1.04-.67-1.56-.08-.18-.15-.36-.22-.55Z"/>
  <path class="st7" d="M45.94,28.26c-.1-.56-.21-1.12-.31-1.68-.04-.2-.08-.39-.12-.59.19,0,.28.17.38.29.36.44.76.83,1.16,1.23.06.06.14.11.23.09.09.67.16,1.34.19,2.01-.2,0-.3-.17-.39-.31-.26-.4-.61-.72-.99-.99-.05-.05-.1-.05-.15-.05Z"/>
  <path class="st10" d="M18.77,25.91c-.4-.15-.81-.32-1.21-.47-.18-.07-.36-.15-.54-.23,0-.17-.11-.3-.21-.41-.38-.41-.77-.8-1.16-1.21-.16-.18-.32-.37-.48-.56-.08-.08-.07-.16-.02-.26.45.14.9.28,1.35.42.03.06.05.14.09.19.26.3.51.61.77.9.3.33.62.65.93.98.15.15.28.31.42.46.04.05.04.12.05.18Z"/>
  <path class="st2" d="M25.25,25.67c.24.07.44.22.58.4.44.52.91,1.01,1.39,1.51.38.41.73.85,1.1,1.27.31.35.65.67.96,1.01.23.25.43.51.64.77.05.05.06.13.1.19-.16.02-.32.04-.48.05-.03-.15-.11-.26-.22-.37-.3-.31-.59-.62-.88-.93-.33-.36-.66-.71-.98-1.08-.43-.46-.85-.94-1.27-1.4-.29-.32-.58-.65-.88-.97-.21-.21-.22-.2-.05-.46Z"/>
  <path class="st2" d="M21.39,21.09c.03.08.05.17.09.24.22.26.46.51.67.77.35.41.71.8,1.09,1.18.18.18.35.37.52.56.35.38.68.77,1.03,1.16.1.12.21.23.29.35.05.07.07.16.11.26-.24-.2-.47-.4-.71-.6-.26-.22-.51-.43-.77-.64-.22-.19-.45-.37-.66-.57-.05-.04-.08-.1-.09-.16-.03-.12-.09-.21-.2-.27-.19-.11-.35-.26-.43-.47-.03-.06-.1-.13-.16-.16-.14-.06-.23-.15-.28-.28-.11-.25-.27-.44-.51-.57-.12-.06-.2-.18-.26-.3-.07-.13-.21-.23-.32-.34-.05-.05-.12-.08-.16-.14-.13-.14-.26-.28-.38-.42-.12-.13-.18-.27-.12-.46.22.15.44.29.66.45.19.13.37.26.57.4,0,0,.02,0,.03.03Z"/>
  <path class="st19" d="M38.96,27.16c-.15.02-.2-.11-.27-.18-.15-.16-.31-.33-.46-.5-.12-.14-.22-.28-.34-.43-.05-.05-.08-.12-.14-.16-.29-.29-.59-.58-.88-.88-.47-.49-.94-.99-1.32-1.56-.04-.05-.08-.12-.14-.14-.2-.09-.33-.26-.46-.43-.1-.13-.22-.26-.33-.37-.21-.22-.42-.42-.63-.64-.4-.41-.77-.84-1.13-1.29-.05-.07-.14-.13-.21-.19-.13-.1-.26-.2-.25-.39.25.15.49.31.73.46.02,0,.04.03.04.05.06.21.24.35.38.49.37.39.77.78,1.13,1.18.37.4.73.82,1.1,1.23.25.27.5.55.77.8.15.14.29.26.36.45.02.05.07.09.12.13.29.31.59.62.88.93.07.08.15.16.21.26.13.21.33.35.55.47,0-.03.02-.05.03-.07.08.27.16.54.25.8Z"/>
  <path class="st6" d="M44.54,22.66c.1,0,.18.03.25.1.19.23.39.45.59.67.13.15.25.28.37.43.19.22.39.43.59.64.08.09.18.15.31.14.13.52.25,1.05.37,1.57-.12,0-.21-.05-.28-.14-.12-.14-.25-.26-.36-.4-.29-.34-.58-.67-.88-1.01-.09-.11-.18-.24-.36-.19-.09-.25-.18-.49-.26-.74-.11-.35-.22-.7-.33-1.06Z"/>
  <path class="st11" d="M50.57,45.03c-.02.12.02.2.1.29.36.39.73.78,1.09,1.18.27.3.55.6.81.9.09.1.16.22.17.36-.23-.13-.46-.26-.68-.37-.3-.16-.6-.32-.9-.47-.02-.05-.02-.1-.05-.14-.39-.45-.79-.88-1.18-1.32-.15-.16-.3-.33-.46-.49-.06-.07-.09-.15,0-.22.06.02.13.05.19.05.33,0,.62.11.9.24Z"/>
  <path class="st24" d="M25.11,14.31c-.02.14.06.24.15.33.08.09.16.19.26.26.31.2.48.52.72.78.1.11.2.23.31.34.41.4.78.83,1.15,1.28.24.28.52.52.77.79.11.12.2.25.29.37.05.06.1.15.15.2.28.29.57.57.87.87.07.07.15.15.05.26-.36-.28-.72-.57-1.08-.85-.13-.1-.26-.22-.37-.33.11-.09.03-.15-.04-.21-.64-.6-1.2-1.28-1.8-1.92-.15-.16-.29-.32-.44-.48-.3-.34-.58-.68-.88-1.01-.26-.29-.55-.58-.82-.87-.08-.08-.14-.17-.12-.29.26.15.54.32.81.48Z"/>
  <path class="st11" d="M25.41,16.45s.08-.02.13-.03c0-.04,0-.05-.03-.07-.22-.24-.44-.46-.65-.7-.39-.43-.77-.86-1.16-1.29-.23-.25-.46-.48-.68-.73-.13-.15-.25-.3-.36-.46-.02-.03-.03-.06-.04-.1.1,0,.2-.05.29-.02.16.05.31.15.46.22,0,.15.11.26.2.37.24.28.49.56.74.83.44.48.87.97,1.31,1.45.35.37.7.74,1.06,1.1.04.05.09.08.12.13.09.12.21.23.19.4-.27-.18-.56-.36-.82-.56-.26-.19-.51-.37-.77-.56Z"/>
  <path class="st26" d="M45.13,24.46c.18-.05.26.09.36.19.3.34.59.67.88,1.01.12.14.24.27.36.4.07.08.16.14.28.14.05.31.12.62.17.93.03.15.05.31.07.46-.09.02-.16-.02-.23-.09-.39-.4-.8-.79-1.16-1.23-.1-.12-.18-.28-.38-.29-.12-.51-.25-1.01-.37-1.52Z"/>
  <path class="st17" d="M26.99,17.55c.02-.17-.1-.28-.19-.4-.04-.05-.08-.08-.12-.13-.36-.36-.71-.73-1.06-1.1-.45-.47-.87-.97-1.31-1.45-.25-.27-.49-.55-.74-.83-.09-.11-.2-.21-.2-.37.31.17.61.35.92.53-.02.12.04.21.12.29.27.29.56.57.82.87.3.33.59.67.88,1.01.15.16.29.33.44.48.59.65,1.15,1.33,1.8,1.92.06.05.15.12.04.21-.46-.33-.93-.68-1.39-1.03Z"/>
  <path class="st19" d="M46.25,34.12c0-.6,0-1.2,0-1.8,0-.58-.05-1.16-.07-1.73,0-.03,0-.05,0-.08.18.02.32.13.43.26.18.21.36.42.56.63.06.07.13.14.2.2.05.04.13.05.18.08.02.44.04.87.05,1.3,0,.07.03.19-.06.21-.07.02-.17-.03-.23-.08-.15-.16-.3-.33-.45-.5-.11-.13-.21-.26-.32-.38-.05-.06-.12-.14-.26-.06v1.77s-.02.12-.03.19Z"/>
  <path class="st2" d="M21.13,35.17c.33.24.67.46.98.73,1.18,1.01,2.22,2.14,3.04,3.47.08.13.15.27.21.4-.12,0-.21-.05-.28-.14-.2-.23-.4-.46-.6-.68-.26-.29-.55-.57-.81-.86-.41-.45-.82-.9-1.23-1.36-.17-.19-.35-.37-.52-.56-.2-.22-.41-.43-.6-.66-.08-.11-.13-.24-.18-.35Z"/>
  <path class="st25" d="M26.28,29.8c-.35-.21-.7-.41-1.05-.62,0-.12-.05-.21-.13-.29-.15-.14-.31-.26-.45-.41-.23-.24-.45-.47-.67-.71-.03-.03-.04-.06-.06-.09-.26-.29-.45-.62-.74-.88-.31-.29-.6-.59-.89-.89-.07-.07-.15-.15-.15-.27.09.03.17.05.26.08.22.08.43.16.64.24.03.08.05.17.09.24.08.11.18.21.27.31.36.41.73.82,1.1,1.23.3.33.61.64.91.97.27.3.54.62.8.94.04.05.04.12.05.17Z"/>
  <path class="st6" d="M22.22,27.52c-.32-.15-.65-.32-.97-.47-.03-.06-.04-.14-.07-.19-.04-.06-.1-.1-.15-.15-.33-.36-.65-.74-.98-1.1-.18-.2-.39-.36-.53-.61-.02-.04-.05-.06-.09-.09-.23-.21-.46-.42-.67-.65-.06-.06-.08-.17-.13-.26.05,0,.11.02.16.04.28.13.57.25.86.37.03.07.04.15.08.22.18.24.37.48.57.7.32.35.66.68.98,1.02.27.29.54.58.79.89.07.07.18.15.15.29Z"/>
  <path class="st8" d="M26.28,29.8c-.02-.06-.02-.14-.05-.17-.26-.32-.53-.64-.8-.94-.3-.33-.61-.64-.91-.97-.37-.4-.74-.82-1.1-1.23-.09-.1-.19-.2-.27-.31-.05-.06-.06-.16-.09-.24.26.02.44.17.6.36.16.19.31.38.48.56.4.42.81.84,1.21,1.26.36.38.72.77,1.08,1.17.23.25.45.49.66.76.07.09.12.22.17.33-.32-.19-.64-.37-.97-.57Z"/>
  <path class="st15" d="M49.5,44.74c-.09.07-.06.15,0,.22.15.16.3.33.46.49.39.44.79.87,1.18,1.32.03.04.03.09.05.14-.45-.17-.89-.34-1.35-.51-.03-.08-.05-.17-.1-.24-.17-.22-.36-.43-.54-.63-.26-.28-.52-.56-.78-.82-.07-.07-.05-.14-.03-.22.37.09.74.17,1.11.25Z"/>
  <path class="st5" d="M22.09,47.02c-.39-.13-.79-.26-1.18-.39-.13-.19-.24-.4-.39-.57-.3-.35-.63-.67-.94-1-.16-.18-.31-.38-.46-.57.25-.08.48,0,.71.08.12.05.23.13.34.19.05.09.07.21.14.28.32.36.64.71.97,1.06.23.25.47.47.7.71.07.06.14.12.13.22Z"/>
  <path class="st16" d="M22.15,25.63c0,.13.07.2.15.27.3.3.59.6.89.89.28.26.48.6.74.88.03.03.04.06.06.09.22.24.45.48.67.71.15.15.3.27.45.41.08.07.14.17.13.29-.35-.2-.7-.41-1.05-.61,0-.15-.08-.26-.19-.36-.24-.23-.48-.46-.71-.71-.17-.18-.33-.39-.49-.58-.05-.05-.08-.13-.14-.16-.19-.12-.32-.29-.45-.47-.1-.15-.22-.27-.34-.4-.13-.13-.26-.25-.4-.36-.1-.09-.15-.2-.14-.33.22.11.44.22.66.33.06.03.11.07.15.11Z"/>
  <path class="st10" d="M16.28,46.23h-.96s-.02-.1-.05-.14c-.1-.13-.21-.26-.33-.37-.33-.35-.65-.68-.98-1.02-.05-.06-.11-.12-.09-.21h.96c.09.23.31.36.47.52.07.07.16.15.23.23.19.22.37.44.56.67.06.09.12.22.18.33Z"/>
  <path class="st4" d="M21.34,25.2c-.02.14.04.25.14.33.14.12.27.24.4.36.12.13.24.26.34.4.13.18.26.35.45.47.05.04.09.11.14.16.16.19.32.4.49.58.23.25.46.48.71.71.1.1.17.21.19.36-.36-.2-.73-.41-1.09-.61.02-.13-.03-.23-.11-.32-.42-.45-.83-.91-1.27-1.35-.4-.4-.76-.84-1.12-1.27-.06-.08-.11-.18-.15-.27.29.14.59.28.89.44Z"/>
  <path class="st11" d="M55.6,49.4c0-.15-.07-.26-.16-.36-.36-.38-.73-.75-1.08-1.13-.48-.52-.98-1.02-1.42-1.59-.09-.13-.24-.22-.26-.39.39.2.79.38,1.13.67,0,.05,0,.11.04.15.07.1.16.2.25.3.28.3.57.6.85.9.29.31.57.63.87.94.05.05.13.08.19.13-.13.13-.26.26-.39.39Z"/>
  <path class="st23" d="M20.43,24.75c.05.09.09.19.15.27.36.43.72.87,1.12,1.27.44.44.85.9,1.27,1.35.08.09.13.19.11.32-.29-.15-.58-.29-.87-.44.04-.14-.07-.21-.15-.29-.26-.3-.53-.6-.79-.89-.32-.35-.66-.67-.98-1.02-.2-.23-.39-.46-.57-.7-.05-.05-.05-.15-.08-.22.27.12.54.24.79.36Z"/>
  <path class="st25" d="M47.55,31.67c-.06-.03-.14-.05-.18-.08-.07-.05-.14-.13-.2-.2-.18-.21-.36-.42-.56-.63-.12-.14-.25-.25-.43-.26-.04-.44-.07-.87-.11-1.31.16.14.34.26.49.41.32.31.64.63.96.94,0,.38.02.76.03,1.14Z"/>
  <path class="st25" d="M22.09,47.02c0-.1-.05-.15-.12-.22-.24-.24-.47-.46-.7-.71-.33-.35-.65-.7-.97-1.06-.06-.07-.09-.19-.14-.28.45.15.87.37,1.27.61.03.06.05.15.09.19.24.27.47.54.72.81.26.28.51.57.77.86.03.03.03.07.05.12-.33-.11-.65-.21-.97-.32Z"/>
  <path class="st11" d="M15.14,22.78c-.05.09-.05.17.02.26.16.18.32.37.48.56.38.41.77.8,1.16,1.21.11.11.22.24.21.41-.32-.12-.64-.24-.96-.36-.03-.06-.05-.14-.08-.19-.25-.37-.56-.68-.87-1-.26-.26-.49-.54-.72-.81-.06-.08-.15-.18-.02-.28.26.06.52.14.77.21Z"/>
  <path class="st10" d="M45.64,40.07c.07-.46.14-.93.21-1.39.14.02.25.09.35.19.2.2.41.4.62.59-.1.48-.21.97-.31,1.45-.07-.05-.15-.09-.22-.15-.07-.07-.11-.16-.18-.24-.15-.16-.31-.3-.46-.45Z"/>
  <path class="st11" d="M18.77,25.91c-.02-.06-.02-.14-.05-.17-.14-.16-.27-.32-.42-.46-.31-.33-.63-.65-.93-.98-.26-.29-.52-.6-.77-.9-.05-.05-.06-.13-.09-.19.24.08.47.15.71.24,0,.13.08.21.16.3.37.41.76.82,1.14,1.23.29.31.58.61.87.92.1.11.18.23.18.38-.26-.14-.53-.26-.79-.36Z"/>
  <path class="st24" d="M18.64,23.98c.04.09.06.2.13.26.22.22.45.43.67.65.03.03.07.05.09.09.13.25.35.41.53.61.33.36.66.74.98,1.1.05.05.11.1.15.15.04.05.05.13.07.19-.31-.15-.62-.29-.93-.44.02-.03.05-.05.04-.06-.04-.08-.07-.17-.14-.24-.17-.19-.38-.36-.55-.57-.35-.42-.7-.83-1.08-1.21-.21-.2-.4-.42-.59-.64-.04-.05-.05-.12-.07-.17.24.09.46.17.7.26Z"/>
  <path class="st11" d="M16.28,46.23c-.06-.11-.11-.24-.19-.34-.17-.23-.36-.45-.56-.67-.07-.08-.15-.15-.23-.23-.16-.16-.38-.29-.47-.52h.92c.08.13.14.27.24.38.29.33.6.63.89.95.11.12.22.24.22.41-.27,0-.55,0-.82,0Z"/>
  <path class="st15" d="M17.94,23.71c.03.05.04.13.07.17.19.22.38.44.59.64.38.38.74.8,1.08,1.21.16.2.37.36.55.56.06.06.09.16.14.24,0,0-.03.05-.04.06-.26-.12-.52-.24-.77-.36,0-.15-.08-.27-.18-.38-.29-.31-.58-.61-.87-.92-.38-.41-.77-.82-1.14-1.23-.07-.08-.16-.16-.15-.3.24.11.48.2.73.3Z"/>
  <path class="st25" d="M44.37,45.81c.04-.24.07-.47.11-.71.14.13.28.25.39.39.15.18.29.33.54.36.05.15.09.29.15.43.16.36.46.57.86.58,0,.04.02.07.04.1.1.18.21.36.31.55h-.78c-.04-.08-.06-.18-.12-.25-.11-.15-.24-.27-.36-.41-.15-.18-.3-.37-.46-.55-.2-.22-.36-.46-.67-.5Z"/>
  <path class="st7" d="M19.11,44.48c.15.19.3.39.46.57.31.34.64.66.94,1,.15.17.26.38.39.57-.31-.1-.61-.2-.92-.3,0-.04-.02-.07-.05-.1-.28-.32-.57-.64-.86-.95-.21-.23-.42-.45-.62-.67-.03-.03-.04-.07-.05-.11.24-.03.47-.03.7-.03Z"/>
  <path class="st24" d="M48.38,44.5c-.03.07-.05.14.03.22.26.27.53.55.78.82.18.2.36.41.54.63.05.06.06.16.1.24-.35-.09-.7-.18-1.05-.27-.03-.07-.04-.15-.08-.21-.17-.22-.36-.43-.55-.64-.1-.11-.2-.21-.36-.23,0-.05,0-.1.02-.15.05-.34.23-.46.57-.41Z"/>
  <path class="st19" d="M23.05,47.34s-.02-.09-.05-.12c-.26-.28-.51-.57-.77-.86-.24-.27-.48-.54-.72-.81-.05-.05-.05-.13-.09-.19.06.02.13.03.18.05.26.12.53.25.78.37.05.03.11.07.15.12.07.09.13.19.21.27.41.47.82.94,1.23,1.41.02.02.02.05.03.08-.31-.1-.62-.21-.92-.31,0,0-.02-.02-.04-.03Z"/>
  <path class="st16" d="M47.51,30.53c-.32-.31-.63-.63-.96-.94-.15-.15-.33-.27-.49-.41-.05-.31-.08-.61-.13-.92.05.02.1.02.14.05.38.28.73.59.99.99.09.14.18.3.39.31.02.31.04.62.05.92Z"/>
  <path class="st26" d="M18.42,44.49s.03.08.05.11c.2.23.42.45.62.67.29.32.57.63.86.95.02.03.03.06.05.1-.27-.03-.56-.05-.83-.08-.06-.11-.11-.24-.19-.33-.42-.46-.85-.9-1.28-1.35,0-.02-.02-.04-.02-.06h.74Z"/>
  <path class="st13" d="M55.99,49c-.06-.05-.14-.07-.19-.13-.29-.31-.57-.63-.87-.94-.28-.3-.57-.6-.85-.9-.09-.09-.17-.19-.25-.3-.03-.04-.03-.09-.04-.15.39.26.8.52,1.18.81.34.26.65.54.95.83.26.23.26.48.05.77Z"/>
  <path class="st15" d="M17.11,46.23c0-.17-.12-.29-.22-.41-.29-.32-.61-.63-.89-.95-.1-.11-.15-.26-.24-.38h.75c.04.1.05.21.12.3.08.13.19.24.29.35.27.29.56.57.82.87.05.06.08.15.13.23-.26,0-.51,0-.76,0Z"/>
  <path class="st15" d="M35.53,9.86c0,.16.05.29.17.4.32.32.62.65.93.98.09.09.18.19.25.3.05.08.06.18.09.28-.16-.12-.33-.24-.48-.37-.48-.42-1-.77-1.62-.95.03-.24-.2-.35-.3-.52.05-.04.09-.06.13-.09.28-.02.56-.03.84-.03Z"/>
  <path class="st24" d="M15.44,24.64c-.22-.07-.44-.15-.66-.22-.15-.18-.3-.36-.46-.55-.28-.31-.57-.62-.85-.94-.11-.13-.21-.26-.32-.38.19-.17.42-.21.67-.16-.04.05-.08.09-.13.15.07.1.15.22.23.31.38.4.77.79,1.15,1.19.15.18.29.36.36.59Z"/>
  <path class="st24" d="M17.84,46.23c-.04-.07-.06-.16-.13-.23-.27-.29-.55-.58-.82-.87-.1-.11-.21-.22-.29-.35-.05-.09-.08-.2-.12-.3h.53s.05.07.07.1c.09.09.19.18.28.27.3.33.6.67.9.98.11.12.21.24.27.38-.24,0-.46,0-.7,0Z"/>
  <path class="st6" d="M18.55,46.23c-.06-.15-.16-.26-.27-.38-.31-.33-.6-.66-.9-.98-.09-.09-.19-.18-.28-.27-.03-.03-.05-.06-.07-.1h.66s0,.05.02.06c.43.45.86.89,1.28,1.35.08.09.13.22.19.33h-.61Z"/>
  <path class="st13" d="M45.22,42.17c.08-.37.15-.76.24-1.13.18.18.36.36.56.54.09.08.2.14.3.2-.08.35-.17.7-.26,1.05-.04,0-.07-.02-.1-.04-.17-.15-.35-.32-.53-.47-.06-.06-.14-.1-.21-.15Z"/>
  <path class="st15" d="M15.44,24.64c-.07-.23-.21-.42-.37-.58-.37-.4-.77-.79-1.15-1.19-.09-.09-.15-.21-.23-.31.05-.05.09-.1.13-.15.18.05.36.1.55.15-.13.1-.05.2.02.28.24.27.46.56.72.81.31.32.62.63.87,1,.04.05.05.13.08.19-.2-.07-.41-.14-.61-.21Z"/>
  <path class="st17" d="M52.84,49.86c.22-.16.44-.32.66-.48.03.15.09.27.21.37.05.05.1.12.15.18.15.17.31.35.53.43-.26.17-.54.36-.8.53-.08-.13-.16-.25-.26-.36-.16-.23-.33-.45-.49-.67Z"/>
  <path class="st6" d="M52.84,49.86c.16.22.34.44.49.66.09.12.17.25.26.36-.23.14-.46.26-.68.4-.04-.03-.07-.05-.09-.08-.15-.23-.31-.43-.5-.62-.07-.07-.11-.18-.16-.27.23-.15.46-.3.69-.45Z"/>
  <path class="st27" d="M14.44,46.23h-.57c-.37-.41-.75-.82-1.13-1.23-.14-.15-.26-.31-.31-.51.19,0,.38,0,.57-.02.03.06.04.15.07.2.13.17.26.35.41.5.29.31.58.62.87.93.05.04.06.08.08.13Z"/>
  <path class="st11" d="M54.39,50.36c-.22-.09-.38-.26-.53-.43-.05-.06-.1-.13-.15-.18-.11-.1-.18-.22-.21-.37.17-.15.36-.31.53-.47.04.21.18.35.33.48.19.19.36.38.55.58-.16.13-.34.26-.51.39Z"/>
  <path class="st13" d="M14.44,46.23s-.05-.09-.07-.13c-.29-.31-.59-.62-.88-.93-.15-.15-.28-.33-.41-.5-.04-.05-.05-.13-.07-.2.19,0,.37,0,.57,0,0,.16.09.29.2.4.25.25.49.47.72.73.16.19.29.41.44.62h-.49Z"/>
  <path class="st11" d="M46.32,41.78c-.1-.06-.21-.12-.3-.2-.19-.17-.37-.36-.56-.54,0-.03,0-.06,0-.09,0-.02,0-.04.02-.05.05-.27.1-.55.15-.82.15.15.32.29.46.44.07.07.11.17.18.24.06.06.15.11.22.15-.06.29-.13.58-.19.87Z"/>
  <path class="st26" d="M52.14,50.31c.05.09.09.2.16.27.19.19.36.39.5.62.02.04.06.05.09.08-.21.1-.42.2-.63.31-.04-.04-.07-.06-.11-.1-.13-.13-.27-.26-.39-.4-.1-.13-.16-.29-.25-.43.22-.13.42-.24.62-.36Z"/>
  <path class="st12" d="M34.7,9.88s-.07.05-.13.09c.1.17.32.28.3.52-.18,0-.37-.02-.56-.03-.02,0-.04,0-.05,0-.22,0-.44,0-.66.02-.02-.02-.03-.06-.05-.06-.26-.07-.36-.28-.45-.5.27,0,.55-.03.82-.04.26,0,.51,0,.77,0Z"/>
  <path class="st8" d="M48.81,51.66c.32-.09.65-.17.97-.26.11.28.28.52.52.72.05.05.09.11.15.16-.19.15-.42.22-.66.21-.07,0-.15-.09-.22-.15-.19-.19-.36-.39-.56-.58-.05-.05-.14-.06-.2-.09Z"/>
  <path class="st6" d="M13.16,22.57c.11.13.21.26.32.38.28.31.57.62.85.94.15.17.31.36.46.55-.27-.08-.55-.16-.83-.25,0-.15-.09-.27-.19-.37-.11-.12-.22-.26-.33-.36-.18-.17-.36-.35-.55-.52.09-.13.18-.25.27-.36Z"/>
  <path class="st24" d="M21.45,14.58c-.34.22-.67.44-1.01.66-.14-.16-.26-.34-.4-.5-.02-.02,0-.05,0-.08.3-.21.61-.42.91-.63,0,.17.06.31.21.4.1.05.2.1.3.16Z"/>
  <path class="st11" d="M21.45,14.58c-.1-.05-.21-.1-.3-.16-.15-.09-.21-.23-.21-.4.25-.15.5-.31.75-.47.14.17.26.35.4.51.13.15.25.3.3.49-.04-.02-.08-.02-.12-.05-.24-.16-.47-.14-.71,0-.04.03-.07.05-.11.06Z"/>
  <path class="st2" d="M16.06,18.42c.09-.21.15-.22.3-.06.26.26.53.52.78.78.26.26.5.53.75.78.06.06.13.13.05.25-.08-.04-.15-.08-.24-.12-.23-.14-.46-.27-.68-.41-.04-.08-.05-.18-.11-.26-.14-.16-.29-.32-.43-.48-.15-.15-.28-.32-.42-.48Z"/>
  <path class="st23" d="M44.92,43.51c.05-.22.1-.43.15-.65.14,0,.18.09.24.19.12.23.27.41.56.43-.07.3-.14.59-.21.89-.11-.07-.22-.14-.33-.22-.22-.15-.31-.4-.4-.65Z"/>
  <path class="st18" d="M46.07,36.92c.03-.26.05-.52.08-.78.26.36.6.66.93.96.03.03.07.04.11.05-.03.22-.05.44-.09.66-.06-.05-.14-.08-.19-.13-.2-.19-.38-.39-.58-.57-.06-.08-.16-.13-.26-.18Z"/>
  <path class="st5" d="M50.31,51.22c.2-.08.41-.17.61-.26.2.21.4.41.6.63.07.08.13.17.19.26-.24.08-.46.17-.7.26,0-.15-.1-.25-.19-.35-.17-.19-.35-.36-.51-.55Z"/>
  <path class="st16" d="M45.4,45.84c-.24-.03-.39-.18-.54-.36-.11-.15-.26-.26-.39-.39.06-.25.14-.49.2-.73.14.14.26.28.4.42.12.11.25.21.37.32-.02.26-.03.5-.05.75Z"/>
  <path class="st13" d="M45.94,38.15c.03-.22.05-.44.07-.66.33.27.67.53.95.86,0,.02.04.02.05.03-.04.2-.07.41-.11.61-.06-.04-.14-.07-.19-.12-.19-.18-.36-.36-.56-.55-.06-.07-.15-.12-.22-.17Z"/>
  <path class="st6" d="M45.86,43.49c-.28-.03-.44-.2-.56-.43-.05-.1-.1-.19-.24-.19.05-.24.1-.46.15-.7.07.05.15.09.21.15.18.15.35.32.53.47.03.02.06.03.1.04-.07.22-.14.45-.2.67Z"/>
  <path class="st4" d="M45.45,45.1c-.13-.11-.26-.21-.37-.32-.14-.14-.26-.28-.4-.42.08-.28.16-.56.25-.85.09.25.19.49.41.66.1.08.22.15.33.22-.07.23-.15.46-.21.71Z"/>
  <path class="st25" d="M50.31,51.22c.17.18.34.36.51.54.09.1.2.19.19.35-.18.08-.36.19-.56.17-.05-.05-.09-.12-.15-.16-.23-.2-.4-.44-.52-.72.17-.05.36-.11.53-.17Z"/>
  <path class="st11" d="M20.21,51.98c.55-.31,1.09-.63,1.64-.94q.18.05.21.25c-.57.33-1.14.67-1.71.99-.05-.1-.09-.2-.14-.3Z"/>
  <path class="st7" d="M51.71,51.85c-.06-.09-.12-.18-.19-.26-.2-.21-.4-.42-.6-.63.2-.1.41-.21.61-.31.08.15.15.3.25.43.11.15.26.27.39.4.04.04.07.06.11.1-.18.1-.37.19-.56.27Z"/>
  <path class="st27" d="M20.03,14.65s0,.06,0,.08c.13.17.26.34.4.5-.24.17-.47.35-.71.51-.15-.08-.3-.16-.39-.33-.03-.05-.1-.08-.15-.12.27-.21.56-.43.84-.65Z"/>
  <path class="st23" d="M48.4,46.28c.03.36-.05.69-.37.92-.05-.04-.09-.07-.13-.12-.11-.15-.22-.31-.33-.46.13-.23.16-.48.2-.74.05.03.12.05.17.07.15.12.31.23.46.33Z"/>
  <path class="st6" d="M47.02,38.37s-.05,0-.05-.03c-.27-.33-.62-.58-.95-.86.02-.19.04-.38.05-.57.09.05.19.1.26.17.2.18.38.39.58.57.05.05.13.09.19.13-.03.2-.05.39-.09.58Z"/>
  <path class="st6" d="M48.4,46.28c-.15-.11-.3-.22-.46-.32-.05-.04-.11-.05-.17-.07,0-.27,0-.56,0-.83.15.02.26.12.36.23.19.21.37.42.55.64.05.05.05.14.08.21-.15-.04-.27,0-.36.15Z"/>
  <path class="st11" d="M14.92,46.23c-.15-.21-.27-.43-.44-.62-.23-.26-.48-.49-.72-.73-.11-.11-.19-.24-.2-.4h.31c0,.09.04.15.09.21.33.34.66.67.98,1.02.12.12.23.25.33.37.03.04.03.09.05.14-.13,0-.26,0-.39,0Z"/>
  <path class="st26" d="M12.88,22.92c.18.17.37.34.55.52.12.12.22.25.33.36.1.11.18.23.19.37-.16,0-.32-.03-.48-.04-.03-.05-.05-.09-.07-.13-.15-.16-.29-.33-.44-.48-.08-.08-.15-.21-.29-.21.08-.14.15-.27.22-.4Z"/>
  <path class="st25" d="M46.18,35.69c0-.16,0-.32.02-.47.07.05.15.09.2.15.31.3.62.6.92.9-.02.13-.03.26-.05.39-.05-.02-.12-.02-.15-.05-.18-.16-.36-.34-.54-.5-.13-.14-.26-.27-.4-.41Z"/>
  <path class="st6" d="M33.11,9.92c.09.22.18.44.45.5.02,0,.03.05.05.06-.41,0-.82.03-1.23.04,0-.06-.02-.13-.03-.19-.02-.12-.04-.24-.05-.36.27,0,.55-.03.82-.05Z"/>
  <path class="st5" d="M46.18,35.69l.41.41c.17.17.36.34.54.5.04.04.1.04.15.05-.03.16-.06.32-.09.48-.04-.02-.08-.03-.11-.05-.33-.3-.67-.58-.93-.96,0-.14.02-.29.03-.44Z"/>
  <path class="st25" d="M13.05,24.85c-.06.15-.13.29-.19.44-.27-.1-.46-.31-.65-.52-.05-.06-.12-.13-.17-.18,0-.16.08-.29.21-.39.1,0,.16.05.23.11.18.18.37.36.57.55Z"/>
  <path class="st8" d="M47.33,36.26c-.31-.3-.61-.6-.92-.9-.06-.05-.14-.1-.2-.15,0-.24.02-.47.04-.7.05.19.15.36.29.5.26.26.49.52.74.77.13.14.14.3.05.47Z"/>
  <path class="st26" d="M32.29,9.98c.02.12.04.24.05.36,0,.06.02.13.03.19-.32.03-.64.05-.96.09-.03-.05-.05-.12-.08-.17-.08-.1-.11-.21-.09-.34.35-.04.69-.08,1.05-.13Z"/>
  <path class="st5" d="M46.76,47.5c-.1-.18-.21-.36-.31-.55-.02-.03-.03-.06-.04-.1.27,0,.55,0,.82,0,.04.15.11.27.22.38.06.06.12.15.17.23-.09.02-.18.05-.27.05-.18,0-.39,0-.59,0Z"/>
  <path class="st25" d="M16.06,18.42c.14.16.28.33.42.49.15.16.29.32.43.48.05.07.07.16.11.26-.35-.19-.7-.36-1.02-.57-.31-.21-.26-.52.06-.66Z"/>
  <path class="st25" d="M13.21,46.23c-.11,0-.22.02-.34.03-.2-.24-.39-.47-.59-.71-.2-.23-.4-.45-.61-.67.02-.09.07-.16.17-.17.13.13.26.26.37.38.34.38.67.77.99,1.15Z"/>
  <path class="st7" d="M12.67,23.31c.15,0,.21.13.29.21.16.15.3.32.44.48.04.04.05.08.07.13-.1.14-.19.28-.29.42-.19-.26-.38-.52-.58-.77-.03-.04-.08-.05-.13-.07.07-.13.14-.26.2-.39Z"/>
  <path class="st18" d="M12.42,44.49c.05.2.17.36.31.51.38.41.76.82,1.13,1.23h-.35s-.03-.07-.05-.1c-.16-.18-.33-.36-.49-.55-.16-.19-.33-.38-.49-.57-.14-.15-.29-.3-.44-.45.13-.03.25-.05.37-.07Z"/>
  <path class="st11" d="M45.94,38.15c.07.05.15.1.23.16.19.18.36.36.56.55.05.05.13.08.19.12-.03.16-.05.32-.09.48-.21-.2-.42-.39-.62-.59-.1-.1-.21-.17-.35-.19.02-.18.05-.36.08-.53Z"/>
  <path class="st5" d="M12.05,44.57c.15.15.29.29.44.45.17.19.33.38.49.57.16.18.33.36.49.55.02.03.03.06.05.1h-.31c-.33-.38-.66-.77-.99-1.14-.12-.14-.25-.26-.37-.38.03-.11.12-.14.21-.15Z"/>
  <path class="st5" d="M30.4,10.75c-.34.06-.67.12-1.01.18-.04-.08-.06-.16-.1-.25-.03-.06-.05-.13-.07-.19.35-.07.7-.15,1.05-.22.02.06.03.13.05.18.04.1.06.19.09.29Z"/>
  <path class="st7" d="M30.4,10.75c-.03-.09-.05-.19-.08-.28-.02-.06-.04-.12-.05-.18.32-.05.64-.12.97-.17-.02.13.02.24.09.34.04.05.05.11.08.17-.34.04-.67.08-1.01.13Z"/>
  <path class="st5" d="M19.08,16.28c-.16.13-.32.26-.48.39-.15-.16-.3-.33-.45-.48.2-.18.4-.36.61-.54.06.12.14.24.2.36.05.09.08.18.12.27Z"/>
  <path class="st8" d="M12.03,24.58c.05.06.12.12.17.18.18.21.37.42.65.52-.08.19-.16.38-.25.57,0-.1-.05-.16-.13-.23-.15-.12-.28-.25-.41-.39-.18-.2-.16-.43-.04-.66Z"/>
  <path class="st7" d="M19.08,16.28c-.04-.09-.07-.18-.12-.27-.06-.12-.14-.24-.2-.36.15-.12.28-.23.43-.35.05.04.12.07.15.12.09.15.24.25.39.33-.21.17-.43.36-.65.53Z"/>
  <path class="st25" d="M18.15,16.19c.15.16.3.33.45.48-.17.16-.35.33-.52.49-.04-.05-.07-.09-.11-.14-.09-.15-.24-.26-.26-.45.15-.13.3-.26.44-.39Z"/>
  <path class="st14" d="M41.78,50.49h-2.11c-.02-.07-.03-.15-.05-.22.43,0,.86,0,1.28,0,.28,0,.57,0,.85,0,.02.06.02.14.02.21Z"/>
  <path class="st4" d="M37.45,50.19c.07,0,.15,0,.22,0h6.12c.15,0,.29.03.44.04.03.08.06.17.09.26h-.66c-.05-.2-.12-.26-.33-.26h-1.51c-.1,0-.2,0-.31,0-1.24,0-2.48,0-3.71,0-.12,0-.24,0-.36-.02Z"/>
  <path class="st5" d="M12.47,23.71s.1.04.13.07c.2.26.39.52.58.77-.05.1-.09.2-.13.29-.19-.18-.39-.36-.58-.56-.06-.06-.13-.12-.23-.11.08-.15.15-.32.23-.47Z"/>
  <path class="st25" d="M29.22,10.5c.03.06.05.13.07.19.04.08.06.16.1.25-.08.03-.16.05-.25.08-.16.06-.32.13-.48.19-.11-.16-.22-.33-.32-.49.29-.07.58-.15.87-.22Z"/>
  <path class="st8" d="M11.67,44.88c.2.23.41.45.61.67.2.23.4.47.59.71-.07.08-.18.15-.15.28-.02-.19-.15-.3-.26-.43-.23-.26-.44-.52-.66-.77-.07-.08-.15-.16-.21-.25-.07-.11-.05-.13.08-.22Z"/>
  <path class="st24" d="M22.06,51.28q-.03-.2-.21-.25c.36-.21.74-.42,1.11-.63.07.07.15.15.21.22-.36.22-.74.44-1.11.66Z"/>
  <path class="st6" d="M37.8,50.23c1.24,0,2.48,0,3.71,0,.1,0,.2,0,.31,0v.04s-.04,0-.05,0c-.28,0-.57,0-.85,0h-2.36c0,.09,0,.15-.02.22h-1c-.02-.06-.04-.14-.05-.19.11-.03.21-.05.32-.06Z"/>
  <path class="st21" d="M47.42,50.22c.55.02.99.49.99,1.08,0,.08,0,.15,0,.24-.02-.22-.16-.34-.31-.48-.24-.23-.44-.48-.65-.73-.03-.03-.03-.06-.05-.1Z"/>
  <path class="st8" d="M17.72,16.58c0,.19.15.3.26.45.03.05.07.09.11.14-.15.15-.29.29-.45.44-.04-.17-.15-.3-.26-.42-.12-.13-.13-.15,0-.26.11-.12.23-.23.35-.34Z"/>
  <path class="st5" d="M23.62,50.22s.1-.04.15-.04c.57,0,1.13.03,1.7.05v.26h-1.14c-.02-.19-.15-.25-.32-.26-.13,0-.26,0-.38,0Z"/>
  <path class="st25" d="M35.31,50.23h1.39c.03.08.06.17.09.26h-1.15c-.24,0-.26-.02-.34-.26Z"/>
  <path class="st23" d="M23.62,50.22c.13,0,.26,0,.38,0,.15.02.3.06.32.26-.13,0-.26.03-.38.03-.26,0-.51.05-.77.12-.07-.07-.14-.15-.21-.22.21-.09.42-.19.66-.19Z"/>
  <path class="st7" d="M47.64,47.46c-.05-.07-.11-.16-.17-.23-.11-.11-.19-.23-.22-.38.12-.07.23-.15.35-.23.11.15.21.31.33.46.04.05.08.08.13.12-.15.09-.27.17-.41.26Z"/>
  <path class="st4" d="M18.72,52.19c.19,0,.39-.02.58-.03h.33c.02.09.05.19.06.28-.22.02-.45.04-.67.05-.05,0-.11-.03-.16-.04-.05-.09-.1-.17-.15-.26Z"/>
  <path class="st25" d="M44.31,50.48c-.03-.08-.06-.17-.09-.26h1.01c0,.07.03.15.05.26-.33,0-.65,0-.97,0Z"/>
  <path class="st27" d="M41.82,50.26v-.04h1.51c.21,0,.29.06.33.26h-.87c0-.07,0-.14-.02-.23h-.95Z"/>
  <path class="st22" d="M25.46,50.48v-.26c.32,0,.64,0,.97,0v.26h-.97Z"/>
  <path class="st12" d="M19.69,52.44c-.02-.09-.05-.19-.06-.28.19-.06.39-.13.58-.18.05.1.09.21.13.31-.15.17-.35.16-.54.21-.04,0-.07-.04-.11-.05Z"/>
  <path class="st13" d="M38.54,50.48c0-.06,0-.13.02-.22h1.08c.02.07.03.15.05.22h-1.14Z"/>
  <path class="st7" d="M36.79,50.48c-.03-.08-.06-.17-.09-.26.26,0,.5-.02.76-.04.12,0,.24.02.35.04-.1.02-.21.04-.32.06l.05.19h-.75Z"/>
  <path class="st1" d="M41.82,50.26h.95c0,.09,0,.15.02.23h-1c0-.07,0-.15,0-.21,0,0,.03-.02.05-.02Z"/>
  <path class="st22" d="M18.72,52.19c.05.08.1.17.15.26-.06,0-.13,0-.19,0-.24.03-.4-.07-.52-.26h.57Z"/>
  <path class="st4" d="M17.4,52.16c.23,0,.46,0,.68.02-.23,0-.46,0-.68-.02Z"/>
  <path class="st9" d="M34.41,43.18c-.27-.36-.44-.76-.53-1.18-.39-1.77,0-3.33,1.32-4.59.73-.7,1.62-1.1,2.62-1.23,1.45-.17,2.73.23,3.8,1.22.8.76,1.28,1.69,1.42,2.78.11.81.04,1.59-.27,2.36-.25.61-.62,1.14-1.08,1.6-.07.07-.18.12-.27.17-.15-.07-.2-.22-.26-.36-.04-.09-.07-.19-.13-.27-.07-.13-.12-.14-.27-.05-.16,0-.26.09-.39.15-.09.03-.17.06-.26.09-.1.02-.2.05-.31.06-.08,0-.15,0-.24,0-.4.02-.8,0-1.18-.1-.41-.1-.79-.26-1.1-.57-.22-.22-.46-.41-.7-.62-.05-.05-.08-.12-.13-.17-.05-.1-.09-.2-.14-.3-.04-.08-.08-.16-.13-.26-.05.04-.11.06-.15.09-.3.22-.6.45-.91.67-.22.16-.46.33-.69.49ZM39.23,43.67c1.6.05,2.99-1.32,3-2.97,0-1.47-1.15-3-3-3-1.58,0-2.98,1.21-2.98,2.99,0,1.89,1.59,3.03,2.98,2.98Z"/>
  <path class="st1" d="M36.57,42.64c.24.21.48.4.7.62.31.31.69.47,1.1.57.39.1.78.12,1.18.1.08,0,.15,0,.24,0,.1.26.19.51.3.76.06.14.11.26.09.41-.35.18-.72.28-1.09.34-.88.14-1.75,0-2.56-.36-.52-.23-1.01-.52-1.4-.95-.07-.08-.14-.17-.2-.26.53-.39,1.06-.78,1.59-1.18.03,0,.05-.04.05-.05Z"/>
  <path class="st25" d="M30.53,30.62c0-.17-.14-.26-.24-.37-.37-.42-.76-.82-1.14-1.23-.33-.36-.66-.72-.98-1.08-.35-.37-.69-.75-1.03-1.12-.34-.36-.67-.73-1-1.09-.36-.4-.71-.8-1.08-1.2-.36-.38-.71-.77-1.07-1.16-.11-.12-.21-.25-.2-.42.36.29.73.56,1.07.87.71.65,1.43,1.28,2.1,1.98.75.77,1.45,1.58,2.16,2.38.48.54.94,1.09,1.4,1.64.08.1.16.21.23.32.18.28.11.42-.22.49Z"/>
  <path class="st27" d="M31.67,21.45v-.24c.17,0,.25.14.35.24.18.19.34.4.51.59.25.26.5.53.75.79.28.31.55.64.83.95.17.19.37.36.55.57.36.4.73.81,1.08,1.21.15.16.29.33.44.48.27.29.55.58.82.87.07.07.15.15.13.26-.09-.04-.19-.06-.28-.11-.37-.21-.66-.53-.92-.86-.38-.46-.76-.94-1.14-1.4-.26-.31-.53-.6-.8-.89-.76-.82-1.53-1.64-2.31-2.46Z"/>
  <path class="st22" d="M44.37,45.81c.31.04.47.29.67.49.16.17.31.36.46.55.12.14.25.26.36.41.05.07.08.16.12.25-.58.03-1.37-.39-1.57-1.22-.04-.15-.04-.32-.05-.47Z"/>
  <path class="st5" d="M36.31,42.17c.05.1.09.2.14.3-.08.04-.18.05-.26.11-.16.11-.32.23-.47.35-.32.25-.64.49-.96.74-.06-.09-.14-.18-.2-.26.36-.27.7-.56,1.07-.82.22-.15.42-.34.68-.41Z"/>
  <path class="st27" d="M34.76,43.66c.32-.25.64-.49.96-.74.15-.12.31-.24.47-.35.07-.05.16-.07.26-.11.05.05.08.12.13.17-.02.03-.03.05-.05.07-.53.39-1.06.78-1.59,1.18-.05-.08-.12-.15-.18-.23Z"/>
  <path class="st8" d="M36.31,42.17c-.26.07-.47.26-.68.41-.36.26-.71.55-1.07.82-.05-.07-.09-.15-.15-.22.24-.16.47-.34.7-.5.3-.22.6-.45.91-.67.05-.04.1-.05.16-.09.05.09.09.17.13.26Z"/>
  <path class="st16" d="M40.37,43.77c.13-.06.24-.16.39-.15,0,.33.17.6.29.89,0,.03.05.05.08.07-.14.08-.26.17-.4.26-.09-.36-.19-.73-.36-1.07Z"/>
  <path class="st18" d="M40.37,43.77c.17.34.27.7.36,1.07-.09.05-.17.09-.26.14-.07-.18-.14-.36-.21-.54-.07-.18-.18-.36-.15-.57.09-.03.18-.05.26-.09Z"/>
  <path class="st8" d="M41.13,44.58s-.06-.05-.08-.07c-.11-.29-.27-.56-.29-.89.16-.08.2-.07.27.05.05.09.08.18.13.27.05.14.12.28.26.36-.09.11-.19.2-.29.28Z"/>
  <path class="st6" d="M40.11,43.86c-.03.21.07.38.15.57.07.18.14.36.21.54-.09.05-.18.08-.26.13,0-.15-.04-.28-.09-.41-.11-.25-.2-.5-.3-.76.1-.03.2-.05.3-.07Z"/>
  <path class="st25" d="M23.05,47.34s.03.02.05.03c0,0-.03-.02-.05-.03Z"/>
  <path class="st19" d="M21.39,21.09s-.03-.03-.05-.04c.02,0,.04.02.05.04Z"/>
  <path class="st13" d="M45.49,40.88s0,.04-.02.06c0,0,0-.04.02-.06Z"/>
  <path class="st27" d="M34.26,10.47s.04,0,.06,0c-.02,0-.04,0-.06,0Z"/>
  <path class="st27" d="M37.13,27.18s.04.03.06.04c-.02-.02-.04-.03-.06-.04Z"/>
</svg>