<?xml version="1.0" encoding="UTF-8"?>
<svg id="Layer_1" xmlns="http://www.w3.org/2000/svg" version="1.1" viewBox="0 0 65 65">
  <!-- Generator: Adobe Illustrator 29.8.3, SVG Export Plug-In . SVG Version: 2.1.1 Build 3)  -->
  <defs>
    <style>
      .st0 {
        fill: #001e50;
      }
    </style>
  </defs>
  <path class="st0" d="M32.5,61.99c-16.25,0-29.49-13.24-29.49-29.49,0-3.61.6-7.22,1.81-10.53l17.15,34.61c0,.6.6.9.9.9.6,0,.9-.3,1.2-.9l7.82-17.75c0-.3.3-.3.3-.3l.3.3,7.82,17.75c0,.6.6.9,1.2.9.3,0,.9-.3.9-.9l17.75-34.61c1.2,3.31,1.81,6.92,1.81,10.23-.3,16.55-13.24,29.79-29.49,29.79ZM32.5,25.58c-.3,0-.3-.3-.3-.3L22.87,4.51c6.32-2.41,12.94-2.41,19.26,0l-9.33,20.76-.3.3ZM22.87,46.94c-.3,0-.3-.3-.3-.3L7.52,16.55c2.71-4.21,6.32-7.52,10.53-9.93l10.83,24.07c0,.3.3.3.6.3h5.42c.3,0,.6-.3.9-.6l10.83-24.07c4.21,2.41,7.82,5.72,10.53,9.93l-15.05,30.39c0,.3-.3.3-.3.3-.3,0-.3-.3-.3-.3l-5.72-12.94c0-.3-.6-.6-.9-.6h-5.12c-.3,0-.6.3-.9.6l-5.42,12.94c-.3.3-.3.6-.6.3ZM32.5,65c18.06,0,32.5-14.44,32.5-32.5S50.25,0,32.5,0,0,14.44,0,32.5s14.44,32.5,32.5,32.5Z"/>
</svg>