<?xml version="1.0" encoding="UTF-8"?>
<svg id="Layer_1" data-name="Layer 1" xmlns="http://www.w3.org/2000/svg" viewBox="0 0 509.44 39.55">
  <defs>
    <style>
      .cls-1 {
        stroke-width: 0px;
      }
    </style>
  </defs>
  <path class="cls-1" d="m8.65,6.57l17.53,31.83h20.24L63.65,6.57h8.65V.77h-25.95v5.79h7.49l-12.59,23.17L28.58,6.57h9.11V.77H0v5.79h8.65Z"/>
  <path class="cls-1" d="m231.82,6.57V.85h34.76v5.72h-8.65v26.03h7.72c1.58.12,3.18-.1,4.67-.63,1.5-.53,2.87-1.37,4.02-2.46,1.16-1.09,2.07-2.41,2.69-3.87.62-1.46.92-3.04.9-4.63h5.72v17.38h-51.83v-5.79h8.73V6.57h-8.73Z"/>
  <path class="cls-1" d="m147.62,0c-17.46,0-26.73,8.73-26.73,19.62s8.96,19.93,26.8,19.93,26.73-8.88,26.73-19.93S165.08,0,147.62,0Zm0,33.6c-6.41,0-9.19-7.18-9.04-14.21.15-7.03,3.55-13.52,9.5-13.44,5.95.08,9.12,6.57,9.04,13.83-.08,7.26-3.01,13.9-9.66,13.83h.15Z"/>
  <path class="cls-1" d="m343.28,6.57l17.46,31.83h20.32l17.23-31.83h8.57V.77h-25.95v5.79h7.57l-12.59,23.17-12.67-23.17h9.12V.77h-37.7v5.79h8.65Z"/>
  <path class="cls-1" d="m482.25,0c-17.46,0-26.73,8.73-26.73,19.62s8.88,19.93,26.8,19.93,27.11-8.88,27.11-19.93S499.71,0,482.25,0Zm0,33.6c-6.41,0-9.19-7.18-9.04-14.21.16-7.03,3.55-13.52,9.5-13.44,5.95.08,9.12,6.57,9.04,13.83-.08,7.26-3.17,13.9-9.73,13.83h.23Z"/>
</svg>